<?xml version="1.0" encoding="UTF-8" standalone="no"?>
<!-- Created with Inkscape (http://www.inkscape.org/) -->

<svg
   xmlns:dc="http://purl.org/dc/elements/1.1/"
   xmlns:cc="http://creativecommons.org/ns#"
   xmlns:rdf="http://www.w3.org/1999/02/22-rdf-syntax-ns#"
   xmlns:svg="http://www.w3.org/2000/svg"
   xmlns="http://www.w3.org/2000/svg"
   xmlns:sodipodi="http://sodipodi.sourceforge.net/DTD/sodipodi-0.dtd"
   xmlns:inkscape="http://www.inkscape.org/namespaces/inkscape"
   width="1003.8157mm"
   height="304.58334mm"
   viewBox="0 0 1003.8157 304.58334"
   version="1.1"
   id="svg19736"
   inkscape:version="0.92.2 2405546, 2018-03-11"
   sodipodi:docname="logo_wide.svg">
  <defs
     id="defs19730" />
  <sodipodi:namedview
     id="base"
     pagecolor="#ffffff"
     bordercolor="#666666"
     borderopacity="1.0"
     inkscape:pageopacity="0.0"
     inkscape:pageshadow="2"
     inkscape:zoom="0.12809405"
     inkscape:cx="1694.5264"
     inkscape:cy="219.77847"
     inkscape:document-units="mm"
     inkscape:current-layer="layer1"
     showgrid="false"
     fit-margin-top="20"
     fit-margin-left="20"
     fit-margin-bottom="20"
     fit-margin-right="20"
     inkscape:window-width="1360"
     inkscape:window-height="768"
     inkscape:window-x="0"
     inkscape:window-y="0"
     inkscape:window-maximized="0" />
  <metadata
     id="metadata19733">
    <rdf:RDF>
      <cc:Work
         rdf:about="">
        <dc:format>image/svg+xml</dc:format>
        <dc:type
           rdf:resource="http://purl.org/dc/dcmitype/StillImage" />
        <dc:title></dc:title>
      </cc:Work>
    </rdf:RDF>
  </metadata>
  <g
     inkscape:label="Layer 1"
     inkscape:groupmode="layer"
     id="layer1"
     transform="translate(687.79914,-101.462)">
    <g
       transform="matrix(0.59213001,0,0,0.59213001,-493.63121,-345.55641)"
       id="g6006">
      <g
         transform="translate(26.458302,46.302079)"
         id="g5904">
        <rect
           ry="30.487772"
           y="783.04828"
           x="-249.63687"
           height="387.96799"
           width="563.61652"
           id="rect5759"
           style="opacity:1;fill:#ffffff;fill-opacity:1;stroke:#4d4d4d;stroke-width:15;stroke-linecap:butt;stroke-linejoin:round;stroke-miterlimit:4;stroke-dasharray:none;stroke-dashoffset:0;stroke-opacity:1" />
        <rect
           rx="26.457516"
           style="opacity:1;fill:#4d4d4d;fill-opacity:1;stroke:none;stroke-width:7.04520607;stroke-linecap:butt;stroke-linejoin:round;stroke-miterlimit:4;stroke-dasharray:none;stroke-dashoffset:0;stroke-opacity:1"
           id="rect5761"
           width="455.43976"
           height="185.18413"
           x="-195.54849"
           y="925.13403"
           ry="26.68676" />
        <g
           style="fill:#ffffff;fill-opacity:1;stroke-width:1.11771047"
           transform="matrix(4.4865201,0,0,3.9358334,-2926.8018,61.667479)"
           id="g5767">
          <path
             style="opacity:1;fill:#ffffff;fill-opacity:1;stroke:none;stroke-width:4.43591356;stroke-linecap:butt;stroke-linejoin:round;stroke-miterlimit:4;stroke-dasharray:none;stroke-dashoffset:0;stroke-opacity:1"
             d="m 635.15548,228.85066 a 16.512984,20.38174 0 0 0 -16.513,20.3818 16.512984,20.38174 0 0 0 0.43391,4.52909 h 32.16357 a 16.512984,20.38174 0 0 0 0.42854,-4.52909 16.512984,20.38174 0 0 0 -16.51302,-20.3818 z"
             id="path5763"
             inkscape:connector-curvature="0" />
          <path
             inkscape:connector-curvature="0"
             id="path5765"
             d="m 683.89509,228.85066 a 16.512984,20.38174 0 0 0 -16.51301,20.3818 16.512984,20.38174 0 0 0 0.43392,4.52909 h 32.16357 a 16.512984,20.38174 0 0 0 0.42853,-4.52909 16.512984,20.38174 0 0 0 -16.51301,-20.3818 z"
             style="opacity:1;fill:#ffffff;fill-opacity:1;stroke:none;stroke-width:4.43591356;stroke-linecap:butt;stroke-linejoin:round;stroke-miterlimit:4;stroke-dasharray:none;stroke-dashoffset:0;stroke-opacity:1" />
        </g>
        <g
           transform="translate(2768.6249,238.92717)"
           id="g5777">
          <g
             style="fill:#efa9d7;fill-opacity:1;stroke:#ffffff;stroke-width:12.32327557;stroke-miterlimit:4;stroke-dasharray:none"
             transform="matrix(0.76580228,-0.50844694,0.39623358,0.59679107,-3609.9062,703.91874)"
             id="g5773">
            <path
               inkscape:connector-curvature="0"
               id="path5769"
               d="m 517.47202,473.53797 a 132.65922,81.987913 0 0 0 125.92978,-81.84048 132.65922,81.987913 0 0 0 -132.65959,-81.98776 132.65922,81.987913 0 0 0 -5.19504,0.1137 c -3.91007,17.79854 -6.65943,47.84902 5.37435,84.0455 11.25619,33.85781 9.91613,61.70184 6.5505,79.66904 z"
               style="opacity:1;fill:#efa9d7;fill-opacity:1;stroke:#ffffff;stroke-width:12.32327557;stroke-linecap:butt;stroke-linejoin:round;stroke-miterlimit:4;stroke-dasharray:none;stroke-dashoffset:0;stroke-opacity:1" />
            <path
               style="opacity:1;fill:#efa9d7;fill-opacity:1;stroke:#ffffff;stroke-width:12.32327557;stroke-linecap:butt;stroke-linejoin:round;stroke-miterlimit:4;stroke-dasharray:none;stroke-dashoffset:0;stroke-opacity:1"
               d="m 769.33158,309.70973 a 132.65922,81.987913 0 0 0 -125.92978,81.84048 132.65922,81.987913 0 0 0 132.65959,81.98776 132.65922,81.987913 0 0 0 5.19504,-0.1137 c 3.91007,-17.79854 6.65943,-47.84902 -5.37435,-84.0455 -11.25619,-33.85781 -9.91613,-61.70184 -6.5505,-79.66904 z"
               id="path5771"
               inkscape:connector-curvature="0" />
          </g>
          <circle
             transform="rotate(-33.581784)"
             r="31.704302"
             cy="-1129.7615"
             cx="-2805.3301"
             id="circle5775"
             style="opacity:1;fill:#e682c3;fill-opacity:1;stroke:none;stroke-width:3.57999992;stroke-linecap:butt;stroke-linejoin:round;stroke-miterlimit:4;stroke-dasharray:none;stroke-dashoffset:0;stroke-opacity:1" />
        </g>
      </g>
      <g
         id="flowRoot5785"
         style="font-style:normal;font-variant:normal;font-weight:normal;font-stretch:normal;font-size:40px;line-height:1.25;font-family:'Padaloma Italic';-inkscape-font-specification:'Padaloma Italic, ';letter-spacing:0px;word-spacing:0px;fill:#4d4d4d;fill-opacity:1;stroke:none;stroke-width:2.05460024;stroke-miterlimit:4;stroke-dasharray:none;stroke-opacity:1"
         transform="matrix(6.4045556,0,0,6.4447395,-496.40551,421.57259)"
         aria-label="DORS">
        <path
           inkscape:connector-curvature="0"
           id="path5980"
           style="font-style:normal;font-variant:normal;font-weight:normal;font-stretch:normal;font-family:Denmark;-inkscape-font-specification:Denmark;letter-spacing:2.40515065px;fill:#4d4d4d;fill-opacity:1;stroke:none;stroke-width:2.05460024;stroke-miterlimit:4;stroke-dasharray:none;stroke-opacity:1"
           d="m 172.32594,86.606821 q 3.36,1.28 5.32,5.24 1.8,3.64 1.8,8.239999 0,4.92 -2,8.56 -2.16,4 -5.96,4.76 -1.48,0.28 -3.32,0.28 h -15.08 V 85.686821 h 14.24 q 2.52,0 5,0.92 z m 0.72,13.599999 q 0,-3.879999 -1.16,-6.359999 -1.48,-3.12 -4.48,-3.12 l -7.8,0.04 v 18.079999 l 8.32,0.04 q 2.72,0 4.04,-2.84 1.08,-2.32 1.08,-5.84 z" />
        <path
           inkscape:connector-curvature="0"
           id="path5982"
           style="font-style:normal;font-variant:normal;font-weight:normal;font-stretch:normal;font-family:Denmark;-inkscape-font-specification:Denmark;letter-spacing:2.40515065px;fill:#4d4d4d;fill-opacity:1;stroke:none;stroke-width:2.05460024;stroke-miterlimit:4;stroke-dasharray:none;stroke-opacity:1"
           d="m 215.06234,99.646821 q 0,8.159999 -4.52,11.679999 -3.68,2.84 -10.72,2.84 -7.8,0 -11.52,-3.28 -4.08,-3.6 -4.08,-11.559999 0,-6.52 3.64,-10.16 3.96,-3.96 11.84,-3.96 8.68,0 12.24,3.8 3.12,3.36 3.12,10.64 z m -7.12,-0.16 q 0,-4.12 -1.96,-6.56 -2.2,-2.72 -6.52,-2.72 -4.24,0 -6.4,2.92 -1.8,2.44 -1.8,6.36 0,4.519999 1.44,6.679999 2,3 7.4,3 4.56,0 6.4,-2.92 1.44,-2.28 1.44,-6.759999 z" />
        <path
           inkscape:connector-curvature="0"
           id="path5984"
           style="font-style:normal;font-variant:normal;font-weight:normal;font-stretch:normal;font-family:Denmark;-inkscape-font-specification:Denmark;letter-spacing:2.40515065px;fill:#4d4d4d;fill-opacity:1;stroke:none;stroke-width:2.05460024;stroke-miterlimit:4;stroke-dasharray:none;stroke-opacity:1"
           d="m 249.99062,113.68682 h -7.88 l -7.24,-10.92 h -7.52 v 10.92 h -6.72 V 85.686821 h 20.48 q 3.48,0 5.76,2.72 2.28,2.68 2.28,6.36 0,2.92 -1.96,4.96 -1.96,2.039999 -4.96,2.559999 z m -8.92,-19.199999 q 0,-1.96 -1.48,-3 -1.44,-1.08 -3.92,-1.08 h -8.4 v 7.84 h 8.6 q 1.88,0 3.36,-0.84 1.84,-1.04 1.84,-2.92 z" />
        <path
           inkscape:connector-curvature="0"
           id="path5986"
           style="font-style:normal;font-variant:normal;font-weight:normal;font-stretch:normal;font-family:Denmark;-inkscape-font-specification:Denmark;letter-spacing:2.40515065px;fill:#4d4d4d;fill-opacity:1;stroke:none;stroke-width:2.05460024;stroke-miterlimit:4;stroke-dasharray:none;stroke-opacity:1"
           d="m 283.21889,105.00682 q 0,3.68 -2.44,6.2 -2.44,2.52 -6.2,2.52 l -19.8,-0.04 v -5.04 h 16.32 q 1.64,0 2.76,-0.76 1.28,-0.88 1.28,-2.4 0,-3.56 -5.04,-3.56 h -8.24 q -3.56,0 -6.24,-2.199999 -2.68,-2.2 -2.68,-5.6 0,-3.76 2.6,-6.08 2.64,-2.36 6.92,-2.36 h 18.92 v 4.8 h -16.68 q -1.12,0 -2.28,0.96 -1.12,0.92 -1.12,2.2 0,1.44 1.08,2.44 1.12,0.96 2.68,0.96 h 9.08 q 4.24,0 6.64,2.2 2.44,2.159999 2.44,5.759999 z" />
      </g>
    </g>
  </g>
</svg>
