999
dxfrw 0.6.3
  0
SECTION
  2
HEADER
  9
$ACADVER
  1
AC1021
  9
$DWGCODEPAGE
  3
ANSI_1252
  9
$INSBASE
 10
0
 20
0
 30
0
  9
$EXTMIN
 10
-20.01532425751828
 20
-22.55567156484936
 30
0
  9
$EXTMAX
 10
560.1371110992878
 20
539.8146521952435
 30
0
  9
$LIMMIN
 10
0
 20
0
  9
$LIMMAX
 10
420
 20
297
  9
$ORTHOMODE
 70
    0
  9
$REGENMODE
 70
    1
  9
$FILLMODE
 70
    1
  9
$QTEXTMODE
 70
    0
  9
$MIRRTEXT
 70
    0
  9
$LTSCALE
 40
1
  9
$ATTMODE
 70
    0
  9
$TEXTSIZE
 40
2.5
  9
$TRACEWID
 40
15.68
  9
$TEXTSTYLE
  7
STANDARD
  9
$CLAYER
  8
drawing
  9
$CELTYPE
  6
BYLAYER
  9
$CECOLOR
 62
  256
  9
$CELTSCALE
 40
1
  9
$DISPSILH
 70
    0
  9
$DIMSCALE
 40
1
  9
$DIMASZ
 40
2.5
  9
$DIMEXO
 40
0.625
  9
$DIMDLI
 40
3.75
  9
$DIMRND
 40
0
  9
$DIMDLE
 40
0
  9
$DIMEXE
 40
1.25
  9
$DIMTP
 40
0
  9
$DIMTM
 40
0
  9
$DIMTXT
 40
2.5
  9
$DIMCEN
 40
2.5
  9
$DIMTSZ
 40
0
  9
$DIMTOL
 70
    0
  9
$DIMLIM
 70
    0
  9
$DIMTIH
 70
    0
  9
$DIMTOH
 70
    0
  9
$DIMSE1
 70
    0
  9
$DIMSE2
 70
    0
  9
$DIMTAD
 70
    1
  9
$DIMZIN
 70
    8
  9
$DIMBLK
  1

  9
$DIMASO
 70
    1
  9
$DIMSHO
 70
    1
  9
$DIMPOST
  1

  9
$DIMAPOST
  1

  9
$DIMALT
 70
    0
  9
$DIMALTD
 70
    3
  9
$DIMALTF
 40
0.03937
  9
$DIMLFAC
 40
1
  9
$DIMTOFL
 70
    1
  9
$DIMTVP
 40
0
  9
$DIMTIX
 70
    0
  9
$DIMSOXD
 70
    0
  9
$DIMSAH
 70
    0
  9
$DIMBLK1
  1

  9
$DIMBLK2
  1

  9
$DIMSTYLE
  2
STANDARD
  9
$DIMCLRD
 70
    0
  9
$DIMCLRE
 70
    0
  9
$DIMCLRT
 70
    0
  9
$DIMTFAC
 40
1
  9
$DIMGAP
 40
0.625
  9
$DIMJUST
 70
    0
  9
$DIMSD1
 70
    0
  9
$DIMSD2
 70
    0
  9
$DIMTOLJ
 70
    0
  9
$DIMTZIN
 70
    8
  9
$DIMALTZ
 70
    0
  9
$DIMALTTZ
 70
    0
  9
$DIMUPT
 70
    0
  9
$DIMDEC
 70
    4
  9
$DIMTDEC
 70
    2
  9
$DIMALTU
 70
    2
  9
$DIMALTTD
 70
    3
  9
$DIMTXSTY
  7
standard
  9
$DIMAUNIT
 70
    0
  9
$DIMADEC
 70
    2
  9
$DIMALTRND
 40
0
  9
$DIMAZIN
 70
    0
  9
$DIMDSEP
 70
   44
  9
$DIMATFIT
 70
    3
  9
$DIMFRAC
 70
    0
  9
$DIMLDRBLK
  1
STANDARD
  9
$DIMLUNIT
 70
    2
  9
$DIMLWD
 70
   -2
  9
$DIMLWE
 70
   -2
  9
$DIMTMOVE
 70
    0
  9
$DIMFXL
 40
1
  9
$DIMFXLON
 70
    0
  9
$DIMJOGANG
 40
0.7854
  9
$DIMTFILL
 70
    0
  9
$DIMTFILLCLR
 70
    0
  9
$DIMARCSYM
 70
    0
  9
$DIMLTYPE
  6

  9
$DIMLTEX1
  6

  9
$DIMLTEX2
  6

  9
$LUNITS
 70
    2
  9
$LUPREC
 70
    4
  9
$SKETCHINC
 40
1
  9
$FILLETRAD
 40
0
  9
$AUNITS
 70
    0
  9
$AUPREC
 70
    2
  9
$MENU
  1
.
  9
$ELEVATION
 40
0
  9
$PELEVATION
 40
0
  9
$THICKNESS
 40
0
  9
$LIMCHECK
 70
    0
  9
$CHAMFERA
 40
0
  9
$CHAMFERB
 40
0
  9
$CHAMFERC
 40
0
  9
$CHAMFERD
 40
0
  9
$SKPOLY
 70
    0
  9
$USRTIMER
 70
    1
  9
$ANGBASE
 50
0
  9
$ANGDIR
 70
    0
  9
$PDMODE
 70
   34
  9
$PDSIZE
 40
0
  9
$PLINEWID
 40
0
  9
$SPLFRAME
 70
    0
  9
$SPLINETYPE
 70
    2
  9
$SPLINESEGS
 70
    8
  9
$HANDSEED
  5
20000
  9
$SURFTAB1
 70
    6
  9
$SURFTAB2
 70
    6
  9
$SURFTYPE
 70
    6
  9
$SURFU
 70
    6
  9
$SURFV
 70
    6
  9
$UCSBASE
  2

  9
$UCSNAME
  2

  9
$UCSORG
 10
0
 20
0
 30
0
  9
$UCSXDIR
 10
1
 20
0
 30
0
  9
$UCSYDIR
 10
0
 20
1
 30
0
  9
$UCSORTHOREF
  2

  9
$UCSORTHOVIEW
 70
    0
  9
$UCSORGTOP
 10
0
 20
0
 30
0
  9
$UCSORGBOTTOM
 10
0
 20
0
 30
0
  9
$UCSORGLEFT
 10
0
 20
0
 30
0
  9
$UCSORGRIGHT
 10
0
 20
0
 30
0
  9
$UCSORGFRONT
 10
0
 20
0
 30
0
  9
$UCSORGBACK
 10
0
 20
0
 30
0
  9
$PUCSBASE
  2

  9
$PUCSNAME
  2

  9
$PUCSORG
 10
0
 20
0
 30
0
  9
$PUCSXDIR
 10
1
 20
0
 30
0
  9
$PUCSYDIR
 10
0
 20
1
 30
0
  9
$PUCSORTHOREF
  2

  9
$PUCSORTHOVIEW
 70
    0
  9
$PUCSORGTOP
 10
0
 20
0
 30
0
  9
$PUCSORGBOTTOM
 10
0
 20
0
 30
0
  9
$PUCSORGLEFT
 10
0
 20
0
 30
0
  9
$PUCSORGRIGHT
 10
0
 20
0
 30
0
  9
$PUCSORGFRONT
 10
0
 20
0
 30
0
  9
$PUCSORGBACK
 10
0
 20
0
 30
0
  9
$USERI1
 70
    0
  9
$USERI2
 70
    0
  9
$USERI3
 70
    0
  9
$USERI4
 70
    0
  9
$USERI5
 70
    0
  9
$USERR1
 40
0
  9
$USERR2
 40
0
  9
$USERR3
 40
0
  9
$USERR4
 40
0
  9
$USERR5
 40
0
  9
$WORLDVIEW
 70
    1
  9
$SHADEDGE
 70
    3
  9
$SHADEDIF
 70
   70
  9
$TILEMODE
 70
    1
  9
$MAXACTVP
 70
   64
  9
$PINSBASE
 10
-46.48702110404469
 20
-272.3557248884073
 30
0
  9
$PLIMCHECK
 70
    0
  9
$PEXTMIN
 10
0
 20
0
 30
0
  9
$PEXTMAX
 10
0
 20
0
 30
0
  9
$GRIDMODE
 70
    0
  9
$SNAPSTYLE
 70
    0
  9
$GRIDUNIT
 10
0
 20
0
  9
$PLIMMIN
 10
0
 20
0
  9
$PLIMMAX
 10
210
 20
297
  9
$UNITMODE
 70
    0
  9
$VISRETAIN
 70
    1
  9
$PLINEGEN
 70
    0
  9
$PSLTSCALE
 70
    1
  9
$TREEDEPTH
 70
 3020
  9
$CMLSTYLE
  2
Standard
  9
$CMLJUST
 70
    0
  9
$CMLSCALE
 40
20
  9
$PROXYGRAPHICS
 70
    1
  9
$MEASUREMENT
 70
    1
  9
$CELWEIGHT
370
   -1
  9
$ENDCAPS
280
    0
  9
$JOINSTYLE
280
    0
  9
$LWDISPLAY
290
    0
  9
$INSUNITS
 70
    4
  9
$HYPERLINKBASE
  1

  9
$STYLESHEET
  1

  9
$XEDIT
290
    1
  9
$CEPSNTYPE
380
    0
  9
$PSTYLEMODE
290
    1
  9
$EXTNAMES
290
    1
  9
$PSVPSCALE
 40
1
  9
$OLESTARTUP
290
    0
  9
$SORTENTS
280
  127
  9
$INDEXCTL
280
    0
  9
$HIDETEXT
280
    1
  9
$XCLIPFRAME
290
    0
  9
$HALOGAP
280
    0
  9
$OBSCOLOR
 70
  257
  9
$OBSLTYPE
280
    0
  9
$INTERSECTIONDISPLAY
280
    0
  9
$INTERSECTIONCOLOR
 70
  257
  9
$DIMASSOC
280
    1
  9
$PROJECTNAME
  1

  9
$CAMERADISPLAY
290
    0
  9
$LENSLENGTH
 40
50
  9
$CAMERAHEIGHT
 40
0
  9
$STEPSPERSEC
 40
2
  9
$STEPSIZE
 40
50
  9
$3DDWFPREC
 40
2
  9
$PSOLWIDTH
 40
5
  9
$PSOLHEIGHT
 40
80
  9
$LOFTANG1
 40
1.570796326794897
  9
$LOFTANG2
 40
1.570796326794897
  9
$LOFTMAG1
 40
0
  9
$LOFTMAG2
 40
0
  9
$LOFTPARAM
 70
    7
  9
$LOFTNORMALS
280
    1
  9
$LATITUDE
 40
1
  9
$LONGITUDE
 40
1
  9
$NORTHDIRECTION
 40
0
  9
$TIMEZONE
 70
-8000
  9
$LIGHTGLYPHDISPLAY
280
    1
  9
$TILEMODELIGHTSYNCH
280
    1
  9
$SOLIDHIST
280
    1
  9
$SHOWHIST
280
    1
  9
$DWFFRAME
280
    2
  9
$DGNFRAME
280
    0
  9
$REALWORLDSCALE
290
    1
  9
$INTERFERECOLOR
 62
    1
  9
$CSHADOW
280
    0
  9
$SHADOWPLANELOCATION
 40
0
  0
ENDSEC
  0
SECTION
  2
CLASSES
  0
ENDSEC
  0
SECTION
  2
TABLES
  0
TABLE
  2
VPORT
  5
8
330
0
100
AcDbSymbolTable
 70
    1
  0
VPORT
  5
31
330
2
100
AcDbSymbolTableRecord
100
AcDbViewportTableRecord
  2
*ACTIVE
 70
    0
 10
0
 20
0
 11
1
 21
1
 12
359.5324804893585
 22
318.1958584010098
 13
0
 23
0
 14
10
 24
10
 15
10
 25
10
 16
0
 26
0
 36
1
 17
0
 27
0
 37
0
 40
578.7127092368819
 41
1.666112956810631
 42
50
 43
0
 44
0
 50
0
 51
0
 71
    0
 72
  100
 73
    1
 74
    3
 75
    0
 76
    0
 77
    0
 78
    0
281
    0
 65
    1
110
0
120
0
130
0
111
1
121
0
131
0
112
0
122
1
132
0
 79
    0
146
0
348
10020
 60
    7
 61
    5
292
1
282
    1
141
0
142
0
 63
  250
421
3358443
  0
ENDTAB
  0
TABLE
  2
LTYPE
  5
5
330
0
100
AcDbSymbolTable
 70
    4
  0
LTYPE
  5
14
330
5
100
AcDbSymbolTableRecord
100
AcDbLinetypeTableRecord
  2
ByBlock
 70
    0
  3

 72
   65
 73
    0
 40
0
  0
LTYPE
  5
15
330
5
100
AcDbSymbolTableRecord
100
AcDbLinetypeTableRecord
  2
ByLayer
 70
    0
  3

 72
   65
 73
    0
 40
0
  0
LTYPE
  5
16
330
5
100
AcDbSymbolTableRecord
100
AcDbLinetypeTableRecord
  2
Continuous
 70
    0
  3
Solid line
 72
   65
 73
    0
 40
0
  0
LTYPE
  5
32
330
5
100
AcDbSymbolTableRecord
100
AcDbLinetypeTableRecord
  2
DOT
 70
    0
  3
Dot . . . . . . . . . . . . . . . . . . . . . .
 72
   65
 73
    2
 40
6.35
 49
0
 74
    0
 49
-6.35
 74
    0
  0
LTYPE
  5
33
330
5
100
AcDbSymbolTableRecord
100
AcDbLinetypeTableRecord
  2
DOTTINY
 70
    0
  3
Dot (.15x) .....................................
 72
   65
 73
    2
 40
0.9525
 49
0
 74
    0
 49
-0.9525
 74
    0
  0
LTYPE
  5
34
330
5
100
AcDbSymbolTableRecord
100
AcDbLinetypeTableRecord
  2
DOT2
 70
    0
  3
Dot (.5x) .....................................
 72
   65
 73
    2
 40
3.175
 49
0
 74
    0
 49
-3.175
 74
    0
  0
LTYPE
  5
35
330
5
100
AcDbSymbolTableRecord
100
AcDbLinetypeTableRecord
  2
DOTX2
 70
    0
  3
Dot (2x) .  .  .  .  .  .  .  .  .  .  .  .  .
 72
   65
 73
    2
 40
12.7
 49
0
 74
    0
 49
-12.7
 74
    0
  0
LTYPE
  5
36
330
5
100
AcDbSymbolTableRecord
100
AcDbLinetypeTableRecord
  2
DASHED
 70
    0
  3
Dashed _ _ _ _ _ _ _ _ _ _ _ _ _ _ _ _ _
 72
   65
 73
    2
 40
19.05
 49
12.7
 74
    0
 49
-6.35
 74
    0
  0
LTYPE
  5
37
330
5
100
AcDbSymbolTableRecord
100
AcDbLinetypeTableRecord
  2
DASHEDTINY
 70
    0
  3
Dashed (.15x) _ _ _ _ _ _ _ _ _ _ _ _ _ _ _ _ _
 72
   65
 73
    2
 40
2.8575
 49
1.905
 74
    0
 49
-0.9525
 74
    0
  0
LTYPE
  5
38
330
5
100
AcDbSymbolTableRecord
100
AcDbLinetypeTableRecord
  2
DASHED2
 70
    0
  3
Dashed (.5x) _ _ _ _ _ _ _ _ _ _ _ _ _ _ _ _ _
 72
   65
 73
    2
 40
9.524999999999999
 49
6.35
 74
    0
 49
-3.175
 74
    0
  0
LTYPE
  5
39
330
5
100
AcDbSymbolTableRecord
100
AcDbLinetypeTableRecord
  2
DASHEDX2
 70
    0
  3
Dashed (2x) ____  ____  ____  ____  ____  ___
 72
   65
 73
    2
 40
38.09999999999999
 49
25.4
 74
    0
 49
-12.7
 74
    0
  0
LTYPE
  5
3A
330
5
100
AcDbSymbolTableRecord
100
AcDbLinetypeTableRecord
  2
DASHDOT
 70
    0
  3
Dash dot __ . __ . __ . __ . __ . __ . __ . __
 72
   65
 73
    4
 40
25.4
 49
12.7
 74
    0
 49
-6.35
 74
    0
 49
0
 74
    0
 49
-6.35
 74
    0
  0
LTYPE
  5
3B
330
5
100
AcDbSymbolTableRecord
100
AcDbLinetypeTableRecord
  2
DASHDOTTINY
 70
    0
  3
Dash dot (.15x) _._._._._._._._._._._._._._._.
 72
   65
 73
    4
 40
3.81
 49
1.905
 74
    0
 49
-0.9525
 74
    0
 49
0
 74
    0
 49
-0.9525
 74
    0
  0
LTYPE
  5
3C
330
5
100
AcDbSymbolTableRecord
100
AcDbLinetypeTableRecord
  2
DASHDOT2
 70
    0
  3
Dash dot (.5x) _._._._._._._._._._._._._._._.
 72
   65
 73
    4
 40
12.7
 49
6.35
 74
    0
 49
-3.175
 74
    0
 49
0
 74
    0
 49
-3.175
 74
    0
  0
LTYPE
  5
3D
330
5
100
AcDbSymbolTableRecord
100
AcDbLinetypeTableRecord
  2
DASHDOTX2
 70
    0
  3
Dash dot (2x) ____  .  ____  .  ____  .  ___
 72
   65
 73
    4
 40
50.8
 49
25.4
 74
    0
 49
-12.7
 74
    0
 49
0
 74
    0
 49
-12.7
 74
    0
  0
LTYPE
  5
3E
330
5
100
AcDbSymbolTableRecord
100
AcDbLinetypeTableRecord
  2
DIVIDE
 70
    0
  3
Divide ____ . . ____ . . ____ . . ____ . . ____
 72
   65
 73
    6
 40
31.75
 49
12.7
 74
    0
 49
-6.35
 74
    0
 49
0
 74
    0
 49
-6.35
 74
    0
 49
0
 74
    0
 49
-6.35
 74
    0
  0
LTYPE
  5
3F
330
5
100
AcDbSymbolTableRecord
100
AcDbLinetypeTableRecord
  2
DIVIDETINY
 70
    0
  3
Divide (.15x) __..__..__..__..__..__..__..__.._
 72
   65
 73
    6
 40
4.7625
 49
1.905
 74
    0
 49
-0.9525
 74
    0
 49
0
 74
    0
 49
-0.9525
 74
    0
 49
0
 74
    0
 49
-0.9525
 74
    0
  0
LTYPE
  5
40
330
5
100
AcDbSymbolTableRecord
100
AcDbLinetypeTableRecord
  2
DIVIDE2
 70
    0
  3
Divide (.5x) __..__..__..__..__..__..__..__.._
 72
   65
 73
    6
 40
15.875
 49
6.35
 74
    0
 49
-3.175
 74
    0
 49
0
 74
    0
 49
-3.175
 74
    0
 49
0
 74
    0
 49
-3.175
 74
    0
  0
LTYPE
  5
41
330
5
100
AcDbSymbolTableRecord
100
AcDbLinetypeTableRecord
  2
DIVIDEX2
 70
    0
  3
Divide (2x) ________  .  .  ________  .  .  _
 72
   65
 73
    6
 40
63.5
 49
25.4
 74
    0
 49
-12.7
 74
    0
 49
0
 74
    0
 49
-12.7
 74
    0
 49
0
 74
    0
 49
-12.7
 74
    0
  0
LTYPE
  5
42
330
5
100
AcDbSymbolTableRecord
100
AcDbLinetypeTableRecord
  2
BORDER
 70
    0
  3
Border __ __ . __ __ . __ __ . __ __ . __ __ .
 72
   65
 73
    6
 40
44.45
 49
12.7
 74
    0
 49
-6.35
 74
    0
 49
12.7
 74
    0
 49
-6.35
 74
    0
 49
0
 74
    0
 49
-6.35
 74
    0
  0
LTYPE
  5
43
330
5
100
AcDbSymbolTableRecord
100
AcDbLinetypeTableRecord
  2
BORDERTINY
 70
    0
  3
Border (.15x) __.__.__.__.__.__.__.__.__.__.__.
 72
   65
 73
    6
 40
6.6675
 49
1.905
 74
    0
 49
-0.9525
 74
    0
 49
1.905
 74
    0
 49
-0.9525
 74
    0
 49
0
 74
    0
 49
-0.9525
 74
    0
  0
LTYPE
  5
44
330
5
100
AcDbSymbolTableRecord
100
AcDbLinetypeTableRecord
  2
BORDER2
 70
    0
  3
Border (.5x) __.__.__.__.__.__.__.__.__.__.__.
 72
   65
 73
    6
 40
22.225
 49
6.35
 74
    0
 49
-3.175
 74
    0
 49
6.35
 74
    0
 49
-3.175
 74
    0
 49
0
 74
    0
 49
-3.175
 74
    0
  0
LTYPE
  5
45
330
5
100
AcDbSymbolTableRecord
100
AcDbLinetypeTableRecord
  2
BORDERX2
 70
    0
  3
Border (2x) ____  ____  .  ____  ____  .  ___
 72
   65
 73
    6
 40
88.89999999999999
 49
25.4
 74
    0
 49
-12.7
 74
    0
 49
25.4
 74
    0
 49
-12.7
 74
    0
 49
0
 74
    0
 49
-12.7
 74
    0
  0
LTYPE
  5
46
330
5
100
AcDbSymbolTableRecord
100
AcDbLinetypeTableRecord
  2
CENTER
 70
    0
  3
Center ____ _ ____ _ ____ _ ____ _ ____ _ ____
 72
   65
 73
    4
 40
50.8
 49
31.75
 74
    0
 49
-6.35
 74
    0
 49
6.35
 74
    0
 49
-6.35
 74
    0
  0
LTYPE
  5
47
330
5
100
AcDbSymbolTableRecord
100
AcDbLinetypeTableRecord
  2
CENTERTINY
 70
    0
  3
Center (.15x) ___ _ ___ _ ___ _ ___ _ ___ _ ___
 72
   65
 73
    4
 40
7.619999999999999
 49
4.7625
 74
    0
 49
-0.9525
 74
    0
 49
0.9525
 74
    0
 49
-0.9525
 74
    0
  0
LTYPE
  5
48
330
5
100
AcDbSymbolTableRecord
100
AcDbLinetypeTableRecord
  2
CENTER2
 70
    0
  3
Center (.5x) ___ _ ___ _ ___ _ ___ _ ___ _ ___
 72
   65
 73
    4
 40
28.575
 49
19.05
 74
    0
 49
-3.175
 74
    0
 49
3.175
 74
    0
 49
-3.175
 74
    0
  0
LTYPE
  5
49
330
5
100
AcDbSymbolTableRecord
100
AcDbLinetypeTableRecord
  2
CENTERX2
 70
    0
  3
Center (2x) ________  __  ________  __  _____
 72
   65
 73
    4
 40
101.6
 49
63.5
 74
    0
 49
-12.7
 74
    0
 49
12.7
 74
    0
 49
-12.7
 74
    0
  0
ENDTAB
  0
TABLE
  2
LAYER
  5
2
330
0
100
AcDbSymbolTable
 70
    1
  0
LAYER
  5
10
330
2
100
AcDbSymbolTableRecord
100
AcDbLayerTableRecord
  2
0
 70
    1
 62
  151
420
11842815
  6
CONTINUOUS
370
    0
390
F
  0
LAYER
  5
4A
330
2
100
AcDbSymbolTableRecord
100
AcDbLayerTableRecord
  2
drawing
 70
    0
 62
    7
  6
CONTINUOUS
370
    0
390
F
  0
ENDTAB
  0
TABLE
  2
STYLE
  5
3
330
0
100
AcDbSymbolTable
 70
    3
  0
STYLE
  5
4B
330
2
100
AcDbSymbolTableRecord
100
AcDbTextStyleTableRecord
  2
unicode2
 70
    0
 40
0
 41
1
 50
0
 71
    0
 42
1
  3
unicode2
  4

  0
STYLE
  5
4C
330
2
100
AcDbSymbolTableRecord
100
AcDbTextStyleTableRecord
  2
unicode
 70
    0
 40
0
 41
1
 50
0
 71
    0
 42
1
  3
unicode
  4

  0
STYLE
  5
4D
330
2
100
AcDbSymbolTableRecord
100
AcDbTextStyleTableRecord
  2
standard
 70
    0
 40
0
 41
1
 50
0
 71
    0
 42
1
  3
standard
  4

  0
ENDTAB
  0
TABLE
  2
VIEW
  5
6
330
0
100
AcDbSymbolTable
 70
    0
  0
ENDTAB
  0
TABLE
  2
UCS
  5
7
330
0
100
AcDbSymbolTable
 70
    0
  0
ENDTAB
  0
TABLE
  2
APPID
  5
9
330
0
100
AcDbSymbolTable
 70
    1
  0
APPID
  5
12
330
9
100
AcDbSymbolTableRecord
100
AcDbRegAppTableRecord
  2
ACAD
 70
    0
  0
APPID
  5
4E
330
9
100
AcDbSymbolTableRecord
100
AcDbRegAppTableRecord
  2
LibreCad
 70
    0
  0
ENDTAB
  0
TABLE
  2
DIMSTYLE
  5
A
330
0
100
AcDbSymbolTable
 70
    1
100
AcDbDimStyleTable
 71
    1
  0
DIMSTYLE
105
4F
330
A
100
AcDbSymbolTableRecord
100
AcDbDimStyleTableRecord
  2
Standard
 70
    0
 40
1
 41
2.5
 42
0.625
 43
0.38
 44
1.25
 45
0
 46
0
 47
0
 48
0
 49
1
140
2.5
141
0.09
142
0
143
25.4
144
1
145
0
146
1
147
0.625
148
0
 71
    0
 72
    0
 73
    0
 74
    1
 75
    0
 76
    0
 77
    0
 78
    8
 79
    0
170
    0
171
    2
172
    0
173
    0
174
    0
175
    0
176
    0
177
    0
178
    0
179
    2
271
    4
272
    4
273
    2
274
    2
275
    0
276
    0
277
    2
278
   44
279
    0
280
    0
281
    0
282
    0
283
    1
284
    0
285
    0
286
    0
288
    0
289
    3
340
standard
341

371
   -2
372
   -2
  0
ENDTAB
  0
TABLE
  2
BLOCK_RECORD
  5
1
330
0
100
AcDbSymbolTable
 70
    2
  0
BLOCK_RECORD
  5
1F
330
1
100
AcDbSymbolTableRecord
100
AcDbBlockTableRecord
  2
*Model_Space
 70
    0
280
    1
281
    0
  0
BLOCK_RECORD
  5
1E
330
1
100
AcDbSymbolTableRecord
100
AcDbBlockTableRecord
  2
*Paper_Space
 70
    0
280
    1
281
    0
  0
BLOCK_RECORD
  5
50
330
1
100
AcDbSymbolTableRecord
100
AcDbBlockTableRecord
  2
*D15
 70
    0
280
    1
281
    0
  0
BLOCK_RECORD
  5
53
330
1
100
AcDbSymbolTableRecord
100
AcDbBlockTableRecord
  2
*D14
 70
    0
280
    1
281
    0
  0
BLOCK_RECORD
  5
56
330
1
100
AcDbSymbolTableRecord
100
AcDbBlockTableRecord
  2
*D18
 70
    0
280
    1
281
    0
  0
BLOCK_RECORD
  5
59
330
1
100
AcDbSymbolTableRecord
100
AcDbBlockTableRecord
  2
*D5
 70
    0
280
    1
281
    0
  0
BLOCK_RECORD
  5
5C
330
1
100
AcDbSymbolTableRecord
100
AcDbBlockTableRecord
  2
*D13
 70
    0
280
    1
281
    0
  0
BLOCK_RECORD
  5
5F
330
1
100
AcDbSymbolTableRecord
100
AcDbBlockTableRecord
  2
*D9
 70
    0
280
    1
281
    0
  0
BLOCK_RECORD
  5
62
330
1
100
AcDbSymbolTableRecord
100
AcDbBlockTableRecord
  2
*D12
 70
    0
280
    1
281
    0
  0
BLOCK_RECORD
  5
65
330
1
100
AcDbSymbolTableRecord
100
AcDbBlockTableRecord
  2
*D2
 70
    0
280
    1
281
    0
  0
BLOCK_RECORD
  5
68
330
1
100
AcDbSymbolTableRecord
100
AcDbBlockTableRecord
  2
*D7
 70
    0
280
    1
281
    0
  0
BLOCK_RECORD
  5
6B
330
1
100
AcDbSymbolTableRecord
100
AcDbBlockTableRecord
  2
*D11
 70
    0
280
    1
281
    0
  0
BLOCK_RECORD
  5
6E
330
1
100
AcDbSymbolTableRecord
100
AcDbBlockTableRecord
  2
*D1
 70
    0
280
    1
281
    0
  0
BLOCK_RECORD
  5
71
330
1
100
AcDbSymbolTableRecord
100
AcDbBlockTableRecord
  2
*D4
 70
    0
280
    1
281
    0
  0
BLOCK_RECORD
  5
74
330
1
100
AcDbSymbolTableRecord
100
AcDbBlockTableRecord
  2
*D16
 70
    0
280
    1
281
    0
  0
BLOCK_RECORD
  5
77
330
1
100
AcDbSymbolTableRecord
100
AcDbBlockTableRecord
  2
*D19
 70
    0
280
    1
281
    0
  0
BLOCK_RECORD
  5
7A
330
1
100
AcDbSymbolTableRecord
100
AcDbBlockTableRecord
  2
*D6
 70
    0
280
    1
281
    0
  0
BLOCK_RECORD
  5
7D
330
1
100
AcDbSymbolTableRecord
100
AcDbBlockTableRecord
  2
*D8
 70
    0
280
    1
281
    0
  0
BLOCK_RECORD
  5
80
330
1
100
AcDbSymbolTableRecord
100
AcDbBlockTableRecord
  2
*D17
 70
    0
280
    1
281
    0
  0
BLOCK_RECORD
  5
83
330
1
100
AcDbSymbolTableRecord
100
AcDbBlockTableRecord
  2
*D3
 70
    0
280
    1
281
    0
  0
BLOCK_RECORD
  5
86
330
1
100
AcDbSymbolTableRecord
100
AcDbBlockTableRecord
  2
*D10
 70
    0
280
    1
281
    0
  0
BLOCK_RECORD
  5
89
330
1
100
AcDbSymbolTableRecord
100
AcDbBlockTableRecord
  2
A4_1_draw
 70
    0
280
    1
281
    0
  0
BLOCK_RECORD
  5
8C
330
1
100
AcDbSymbolTableRecord
100
AcDbBlockTableRecord
  2
A4_1_text
 70
    0
280
    1
281
    0
  0
ENDTAB
  0
ENDSEC
  0
SECTION
  2
BLOCKS
  0
BLOCK
  5
20
330
1F
100
AcDbEntity
  8
0
100
AcDbBlockBegin
  2
*Model_Space
 70
    0
 10
0
 20
0
 30
0
  3
*Model_Space
  1

  0
ENDBLK
  5
21
330
1F
100
AcDbEntity
  8
0
100
AcDbBlockEnd
  0
BLOCK
  5
1C
330
1B
100
AcDbEntity
  8
0
100
AcDbBlockBegin
  2
*Paper_Space
 70
    0
 10
0
 20
0
 30
0
  3
*Paper_Space
  1

  0
ENDBLK
  5
1D
330
1F
100
AcDbEntity
  8
0
100
AcDbBlockEnd
  0
BLOCK
  5
51
330
50
100
AcDbEntity
  8
0
100
AcDbBlockBegin
  2
*D15
 70
    1
 10
0
 20
0
  3
*D15
  1

  0
LINE
  5
8F
100
AcDbEntity
  8
drawing
  6
ByBlock
 62
    0
370
   -2
100
AcDbLine
 10
97.35856022019971
 20
107.7406438609366
 11
113.2585602201997
 21
107.7406438609366
  0
SOLID
  5
90
100
AcDbEntity
  8
drawing
  6
ByBlock
 62
    0
370
   -2
100
AcDbTrace
 10
102.3585602201997
 20
107.7406438609366
 30
0
 11
99.85856022019971
 21
107.3243592031638
 31
0
 12
99.85856022019971
 22
108.1569285187094
 32
0
 13
99.85856022019971
 23
108.1569285187094
 33
0
  0
SOLID
  5
91
100
AcDbEntity
  8
drawing
  6
ByBlock
 62
    0
370
   -2
100
AcDbTrace
 10
108.2585602201997
 20
107.7406438609366
 30
0
 11
110.7585602201997
 21
108.1569285187094
 31
0
 12
110.7585602201997
 22
107.3243592031638
 32
0
 13
110.7585602201997
 23
107.3243592031638
 33
0
  0
MTEXT
  5
92
100
AcDbEntity
  8
drawing
  6
CONTINUOUS
 62
    0
370
   -2
100
AcDbMText
 10
105.3085602201997
 20
109.6156438609366
 30
0
 40
2.5
 41
4.027777777777933
 71
    5
 72
    1
  1
5,9
  7
standard
210
0
220
0
230
1
 50
0
 73
    2
 44
1
  0
ENDBLK
  5
52
330
50
100
AcDbEntity
  8
0
100
AcDbBlockEnd
  0
BLOCK
  5
54
330
53
100
AcDbEntity
  8
0
100
AcDbBlockBegin
  2
*D14
 70
    1
 10
0
 20
0
  3
*D14
  1

  0
LINE
  5
93
100
AcDbEntity
  8
drawing
  6
ByBlock
 62
    0
370
   -2
100
AcDbLine
 10
35.30856022019964
 20
223.2798144151728
 11
175.3085658158244
 21
223.2798144151728
  0
SOLID
  5
94
100
AcDbEntity
  8
drawing
  6
ByBlock
 62
    0
370
   -2
100
AcDbTrace
 10
35.30856022019964
 20
223.2798144151728
 30
0
 11
37.80856022019964
 21
223.6960990729457
 31
0
 12
37.80856022019964
 22
222.8635297574
 32
0
 13
37.80856022019964
 23
222.8635297574
 33
0
  0
SOLID
  5
95
100
AcDbEntity
  8
drawing
  6
ByBlock
 62
    0
370
   -2
100
AcDbTrace
 10
175.3085658158244
 20
223.2798144151728
 30
0
 11
172.8085658158244
 21
222.8635297574
 31
0
 12
172.8085658158244
 22
223.6960990729457
 32
0
 13
172.8085658158244
 23
223.6960990729457
 33
0
  0
MTEXT
  5
96
100
AcDbEntity
  8
drawing
  6
CONTINUOUS
 62
    0
370
   -2
100
AcDbMText
 10
105.308563018012
 20
225.1548144151728
 30
0
 40
2.5
 41
4.722222222222222
 71
    5
 72
    1
  1
140
  7
standard
210
0
220
0
230
1
 50
0
 73
    2
 44
1
  0
LINE
  5
97
100
AcDbEntity
  8
drawing
  6
ByBlock
 62
    0
370
   -2
100
AcDbLine
 10
35.30856022019964
 20
208.3656438609366
 11
35.30856022019964
 21
224.5298144151728
  0
LINE
  5
98
100
AcDbEntity
  8
drawing
  6
ByBlock
 62
    0
370
   -2
100
AcDbLine
 10
175.3085658158244
 20
208.3656438609366
 11
175.3085658158244
 21
224.5298144151728
  0
ENDBLK
  5
55
330
53
100
AcDbEntity
  8
0
100
AcDbBlockEnd
  0
BLOCK
  5
57
330
56
100
AcDbEntity
  8
0
100
AcDbBlockBegin
  2
*D18
 70
    1
 10
0
 20
0
  3
*D18
  1

  0
LINE
  5
99
100
AcDbEntity
  8
drawing
  6
ByBlock
 62
    0
370
   -2
100
AcDbLine
 10
347.2553840608953
 20
134.2123040187052
 11
347.2553840608953
 21
54.2123040187052
  0
SOLID
  5
9A
100
AcDbEntity
  8
drawing
  6
ByBlock
 62
    0
370
   -2
100
AcDbTrace
 10
347.2553840608953
 20
134.2123040187052
 30
0
 11
347.6716687186681
 21
131.7123040187052
 31
0
 12
346.8390994031224
 22
131.7123040187052
 32
0
 13
346.8390994031224
 23
131.7123040187052
 33
0
  0
SOLID
  5
9B
100
AcDbEntity
  8
drawing
  6
ByBlock
 62
    0
370
   -2
100
AcDbTrace
 10
347.2553840608953
 20
54.2123040187052
 30
0
 11
346.8390994031224
 21
56.7123040187052
 31
0
 12
347.6716687186681
 22
56.7123040187052
 32
0
 13
347.6716687186681
 23
56.7123040187052
 33
0
  0
MTEXT
  5
9C
100
AcDbEntity
  8
drawing
  6
CONTINUOUS
 62
    0
370
   -2
100
AcDbMText
 10
345.3803840608953
 20
94.2123040187052
 30
0
 40
2.5
 41
3.055555555555556
 71
    5
 72
    1
  1
80
  7
standard
210
0
220
0
230
1
 50
90
 73
    2
 44
1
  0
LINE
  5
9D
100
AcDbEntity
  8
drawing
  6
ByBlock
 62
    0
370
   -2
100
AcDbLine
 10
362.0121110992878
 20
134.2123040187052
 11
346.0053840608953
 21
134.2123040187052
  0
LINE
  5
9E
100
AcDbEntity
  8
drawing
  6
ByBlock
 62
    0
370
   -2
100
AcDbLine
 10
362.0121110992878
 20
54.2123040187052
 11
346.0053840608953
 21
54.2123040187052
  0
ENDBLK
  5
58
330
56
100
AcDbEntity
  8
0
100
AcDbBlockEnd
  0
BLOCK
  5
5A
330
59
100
AcDbEntity
  8
0
100
AcDbBlockBegin
  2
*D5
 70
    1
 10
0
 20
0
  3
*D5
  1

  0
LINE
  5
9F
100
AcDbEntity
  8
drawing
  6
ByBlock
 62
    0
370
   -2
100
AcDbLine
 10
126.2570099575713
 20
353.2498802672371
 11
156.2570099575713
 21
353.2498802672371
  0
SOLID
  5
A0
100
AcDbEntity
  8
drawing
  6
ByBlock
 62
    0
370
   -2
100
AcDbTrace
 10
126.2570099575713
 20
353.2498802672371
 30
0
 11
128.7570099575713
 21
353.6661649250099
 31
0
 12
128.7570099575713
 22
352.8335956094642
 32
0
 13
128.7570099575713
 23
352.8335956094642
 33
0
  0
SOLID
  5
A1
100
AcDbEntity
  8
drawing
  6
ByBlock
 62
    0
370
   -2
100
AcDbTrace
 10
156.2570099575713
 20
353.2498802672371
 30
0
 11
153.7570099575713
 21
352.8335956094642
 31
0
 12
153.7570099575713
 22
353.6661649250099
 32
0
 13
153.7570099575713
 23
353.6661649250099
 33
0
  0
MTEXT
  5
A2
100
AcDbEntity
  8
drawing
  6
CONTINUOUS
 62
    0
370
   -2
100
AcDbMText
 10
141.2570099575713
 20
355.1248802672371
 30
0
 40
2.5
 41
3.055555555555711
 71
    5
 72
    1
  1
30
  7
standard
210
0
220
0
230
1
 50
0
 73
    2
 44
1
  0
LINE
  5
A3
100
AcDbEntity
  8
drawing
  6
ByBlock
 62
    0
370
   -2
100
AcDbLine
 10
126.2570099575713
 20
358.53833502753
 11
126.2570099575713
 21
351.9998802672371
  0
LINE
  5
A4
100
AcDbEntity
  8
drawing
  6
ByBlock
 62
    0
370
   -2
100
AcDbLine
 10
156.2570099575713
 20
358.53833502753
 11
156.2570099575713
 21
351.9998802672371
  0
ENDBLK
  5
5B
330
59
100
AcDbEntity
  8
0
100
AcDbBlockEnd
  0
BLOCK
  5
5D
330
5C
100
AcDbEntity
  8
0
100
AcDbBlockBegin
  2
*D13
 70
    1
 10
0
 20
0
  3
*D13
  1

  0
SOLID
  5
A5
100
AcDbEntity
  8
drawing
  6
ByBlock
 62
    0
370
   -2
100
AcDbTrace
 10
196.5217636557961
 20
16.52744042534016
 30
0
 11
194.4596389984146
 21
18.00084967389143
 31
0
 12
195.0483544072448
 22
18.58956508272163
 32
0
 13
195.0483544072448
 23
18.58956508272163
 33
0
  0
LINE
  5
A6
100
AcDbEntity
  8
drawing
  6
ByBlock
 62
    0
370
   -2
100
AcDbLine
 10
175.3085602201997
 20
37.74064386093659
 11
196.5217636557961
 21
16.52744042534015
  0
MTEXT
  5
A7
100
AcDbEntity
  8
drawing
  6
CONTINUOUS
 62
    0
370
   -2
100
AcDbMText
 10
187.2409871527227
 20
28.45986735786315
 30
0
 40
2.5
 41
3.055555555555711
 71
    5
 72
    1
  1
30
  7
standard
210
0
220
0
230
1
 50
314.9999999999999
 73
    2
 44
1
  0
ENDBLK
  5
5E
330
5C
100
AcDbEntity
  8
0
100
AcDbBlockEnd
  0
BLOCK
  5
60
330
5F
100
AcDbEntity
  8
0
100
AcDbBlockBegin
  2
*D9
 70
    1
 10
0
 20
0
  3
*D9
  1

  0
LINE
  5
A8
100
AcDbEntity
  8
drawing
  6
ByBlock
 62
    0
370
   -2
100
AcDbLine
 10
195.5640000001984
 20
352.9206414391547
 11
215.5640000001984
 21
352.9206414391547
  0
SOLID
  5
A9
100
AcDbEntity
  8
drawing
  6
ByBlock
 62
    0
370
   -2
100
AcDbTrace
 10
195.5640000001984
 20
352.9206414391547
 30
0
 11
198.0640000001984
 21
353.3369260969275
 31
0
 12
198.0640000001984
 22
352.5043567813818
 32
0
 13
198.0640000001984
 23
352.5043567813818
 33
0
  0
SOLID
  5
AA
100
AcDbEntity
  8
drawing
  6
ByBlock
 62
    0
370
   -2
100
AcDbTrace
 10
215.5640000001984
 20
352.9206414391547
 30
0
 11
213.0640000001984
 21
352.5043567813818
 31
0
 12
213.0640000001984
 22
353.3369260969275
 32
0
 13
213.0640000001984
 23
353.3369260969275
 33
0
  0
MTEXT
  5
AB
100
AcDbEntity
  8
drawing
  6
CONTINUOUS
 62
    0
370
   -2
100
AcDbMText
 10
205.5640000001984
 20
354.7956414391547
 30
0
 40
2.5
 41
3.055555555555556
 71
    5
 72
    1
  1
20
  7
standard
210
0
220
0
230
1
 50
0
 73
    2
 44
1
  0
LINE
  5
AC
100
AcDbEntity
  8
drawing
  6
ByBlock
 62
    0
370
   -2
100
AcDbLine
 10
195.5640000001984
 20
358.6670000003645
 11
195.5640000001984
 21
351.6706414391547
  0
LINE
  5
AD
100
AcDbEntity
  8
drawing
  6
ByBlock
 62
    0
370
   -2
100
AcDbLine
 10
215.5640000001984
 20
358.6670000003645
 11
215.5640000001984
 21
351.6706414391547
  0
ENDBLK
  5
61
330
5F
100
AcDbEntity
  8
0
100
AcDbBlockEnd
  0
BLOCK
  5
63
330
62
100
AcDbEntity
  8
0
100
AcDbBlockBegin
  2
*D12
 70
    1
 10
0
 20
0
  3
*D12
  1

  0
LINE
  5
AE
100
AcDbEntity
  8
drawing
  6
ByBlock
 62
    0
370
   -2
100
AcDbLine
 10
-16.89032425751829
 20
207.7406438609366
 11
-16.8903242575183
 21
7.740643860936604
  0
SOLID
  5
AF
100
AcDbEntity
  8
drawing
  6
ByBlock
 62
    0
370
   -2
100
AcDbTrace
 10
-16.89032425751829
 20
207.7406438609366
 30
0
 11
-16.47403959974545
 21
205.2406438609366
 31
0
 12
-17.30660891529113
 22
205.2406438609366
 32
0
 13
-17.30660891529113
 23
205.2406438609366
 33
0
  0
SOLID
  5
B0
100
AcDbEntity
  8
drawing
  6
ByBlock
 62
    0
370
   -2
100
AcDbTrace
 10
-16.8903242575183
 20
7.740643860936604
 30
0
 11
-17.30660891529114
 21
10.2406438609366
 31
0
 12
-16.47403959974546
 22
10.2406438609366
 32
0
 13
-16.47403959974546
 23
10.2406438609366
 33
0
  0
MTEXT
  5
B1
100
AcDbEntity
  8
drawing
  6
CONTINUOUS
 62
    0
370
   -2
100
AcDbMText
 10
-18.76532425751829
 20
107.7406438609366
 30
0
 40
2.5
 41
5
 71
    5
 72
    1
  1
200
  7
standard
210
0
220
0
230
1
 50
90
 73
    2
 44
1
  0
LINE
  5
B2
100
AcDbEntity
  8
drawing
  6
ByBlock
 62
    0
370
   -2
100
AcDbLine
 10
34.68356022019964
 20
207.7406438609366
 11
-18.14032425751829
 21
207.7406438609366
  0
LINE
  5
B3
100
AcDbEntity
  8
drawing
  6
ByBlock
 62
    0
370
   -2
100
AcDbLine
 10
34.68356022019962
 20
7.740643860936601
 11
-18.1403242575183
 21
7.740643860936604
  0
ENDBLK
  5
64
330
62
100
AcDbEntity
  8
0
100
AcDbBlockEnd
  0
BLOCK
  5
66
330
65
100
AcDbEntity
  8
0
100
AcDbBlockBegin
  2
*D2
 70
    1
 10
0
 20
0
  3
*D2
  1

  0
LINE
  5
B4
100
AcDbEntity
  8
drawing
  6
ByBlock
 62
    0
370
   -2
100
AcDbLine
 10
59.44887225592787
 20
322.4083024607008
 11
59.44887225592788
 21
522.4083024607007
  0
SOLID
  5
B5
100
AcDbEntity
  8
drawing
  6
ByBlock
 62
    0
370
   -2
100
AcDbTrace
 10
59.44887225592787
 20
322.4083024607008
 30
0
 11
59.03258759815503
 21
324.9083024607008
 31
0
 12
59.86515691370071
 22
324.9083024607008
 32
0
 13
59.86515691370071
 23
324.9083024607008
 33
0
  0
SOLID
  5
B6
100
AcDbEntity
  8
drawing
  6
ByBlock
 62
    0
370
   -2
100
AcDbTrace
 10
59.44887225592788
 20
522.4083024607007
 30
0
 11
59.86515691370072
 21
519.9083024607007
 31
0
 12
59.03258759815504
 22
519.9083024607007
 32
0
 13
59.03258759815504
 23
519.9083024607007
 33
0
  0
MTEXT
  5
B7
100
AcDbEntity
  8
drawing
  6
CONTINUOUS
 62
    0
370
   -2
100
AcDbMText
 10
57.57387225592787
 20
422.4083024607007
 30
0
 40
2.5
 41
5
 71
    5
 72
    1
  1
200
  7
standard
210
0
220
0
230
1
 50
90
 73
    2
 44
1
  0
LINE
  5
B8
100
AcDbEntity
  8
drawing
  6
ByBlock
 62
    0
370
   -2
100
AcDbLine
 10
65.11983053484755
 20
322.4083024607008
 11
58.19887225592787
 21
322.4083024607008
  0
LINE
  5
B9
100
AcDbEntity
  8
drawing
  6
ByBlock
 62
    0
370
   -2
100
AcDbLine
 10
65.11983053484755
 20
522.4083024607007
 11
58.19887225592788
 21
522.4083024607007
  0
ENDBLK
  5
67
330
65
100
AcDbEntity
  8
0
100
AcDbBlockEnd
  0
BLOCK
  5
69
330
68
100
AcDbEntity
  8
0
100
AcDbBlockBegin
  2
*D7
 70
    1
 10
0
 20
0
  3
*D7
  1

  0
LINE
  5
BA
100
AcDbEntity
  8
drawing
  6
ByBlock
 62
    0
370
   -2
100
AcDbLine
 10
133.3070099575714
 20
374.16333502753
 11
149.2070099575713
 21
374.16333502753
  0
SOLID
  5
BB
100
AcDbEntity
  8
drawing
  6
ByBlock
 62
    0
370
   -2
100
AcDbTrace
 10
138.3070099575714
 20
374.16333502753
 30
0
 11
135.8070099575714
 21
373.7470503697572
 31
0
 12
135.8070099575714
 22
374.5796196853029
 32
0
 13
135.8070099575714
 23
374.5796196853029
 33
0
  0
SOLID
  5
BC
100
AcDbEntity
  8
drawing
  6
ByBlock
 62
    0
370
   -2
100
AcDbTrace
 10
144.2070099575713
 20
374.16333502753
 30
0
 11
146.7070099575713
 21
374.5796196853029
 31
0
 12
146.7070099575713
 22
373.7470503697572
 32
0
 13
146.7070099575713
 23
373.7470503697572
 33
0
  0
MTEXT
  5
BD
100
AcDbEntity
  8
drawing
  6
CONTINUOUS
 62
    0
370
   -2
100
AcDbMText
 10
141.2570099575714
 20
376.03833502753
 30
0
 40
2.5
 41
4.027777777777933
 71
    5
 72
    1
  1
5,9
  7
standard
210
0
220
0
230
1
 50
0
 73
    2
 44
1
  0
ENDBLK
  5
6A
330
68
100
AcDbEntity
  8
0
100
AcDbBlockEnd
  0
BLOCK
  5
6C
330
6B
100
AcDbEntity
  8
0
100
AcDbBlockBegin
  2
*D11
 70
    1
 10
0
 20
0
  3
*D11
  1

  0
SOLID
  5
BE
100
AcDbEntity
  8
drawing
  6
ByBlock
 62
    0
370
   -2
100
AcDbTrace
 10
198.1040566163253
 20
390.9515228593543
 30
0
 11
200.2462681817221
 21
389.5971881424629
 31
0
 12
199.6918167428651
 22
388.9760961467508
 32
0
 13
199.6918167428651
 23
388.9760961467508
 33
0
  0
LINE
  5
BF
100
AcDbEntity
  8
drawing
  6
ByBlock
 62
    0
370
   -2
100
AcDbLine
 10
205.5640000001984
 20
384.2920000003645
 11
198.1040566163253
 21
390.9515228593543
  0
MTEXT
  5
C0
100
AcDbEntity
  8
drawing
  6
CONTINUOUS
 62
    0
370
   -2
100
AcDbMText
 10
203.0826888443224
 20
389.0205008143356
 30
0
 40
2.5
 41
2.5
 71
    5
 72
    1
  1
10
  7
standard
210
0
220
0
230
1
 50
318.2445762977597
 73
    2
 44
1
  0
ENDBLK
  5
6D
330
6B
100
AcDbEntity
  8
0
100
AcDbBlockEnd
  0
BLOCK
  5
6F
330
6E
100
AcDbEntity
  8
0
100
AcDbBlockBegin
  2
*D1
 70
    1
 10
0
 20
0
  3
*D1
  1

  0
LINE
  5
C1
100
AcDbEntity
  8
drawing
  6
ByBlock
 62
    0
370
   -2
100
AcDbLine
 10
65.74483053484755
 20
536.6896521952435
 11
85.74483053484755
 21
536.6896521952435
  0
SOLID
  5
C2
100
AcDbEntity
  8
drawing
  6
ByBlock
 62
    0
370
   -2
100
AcDbTrace
 10
65.74483053484755
 20
536.6896521952435
 30
0
 11
68.24483053484755
 21
537.1059368530164
 31
0
 12
68.24483053484755
 22
536.2733675374707
 32
0
 13
68.24483053484755
 23
536.2733675374707
 33
0
  0
SOLID
  5
C3
100
AcDbEntity
  8
drawing
  6
ByBlock
 62
    0
370
   -2
100
AcDbTrace
 10
85.74483053484755
 20
536.6896521952435
 30
0
 11
83.24483053484755
 21
536.2733675374707
 31
0
 12
83.24483053484755
 22
537.1059368530164
 32
0
 13
83.24483053484755
 23
537.1059368530164
 33
0
  0
MTEXT
  5
C4
100
AcDbEntity
  8
drawing
  6
CONTINUOUS
 62
    0
370
   -2
100
AcDbMText
 10
75.74483053484755
 20
538.5646521952435
 30
0
 40
2.5
 41
3.055555555555556
 71
    5
 72
    1
  1
20
  7
standard
210
0
220
0
230
1
 50
0
 73
    2
 44
1
  0
LINE
  5
C5
100
AcDbEntity
  8
drawing
  6
ByBlock
 62
    0
370
   -2
100
AcDbLine
 10
65.74483053484755
 20
522.0333193697197
 11
65.74483053484755
 21
537.9396521952435
  0
LINE
  5
C6
100
AcDbEntity
  8
drawing
  6
ByBlock
 62
    0
370
   -2
100
AcDbLine
 10
85.74483053484755
 20
522.0333193697197
 11
85.74483053484755
 21
537.9396521952435
  0
ENDBLK
  5
70
330
6E
100
AcDbEntity
  8
0
100
AcDbBlockEnd
  0
BLOCK
  5
72
330
71
100
AcDbEntity
  8
0
100
AcDbBlockBegin
  2
*D4
 70
    1
 10
0
 20
0
  3
*D4
  1

  0
SOLID
  5
C7
100
AcDbEntity
  8
drawing
  6
ByBlock
 62
    0
370
   -2
100
AcDbTrace
 10
66.74971313685182
 20
526.7772852652465
 30
0
 11
69.1803658336148
 21
526.0594967281299
 31
0
 12
68.81661913908668
 22
525.3105908545997
 32
0
 13
68.81661913908668
 23
525.3105908545997
 33
0
  0
LINE
  5
C8
100
AcDbEntity
  8
drawing
  6
ByBlock
 62
    0
370
   -2
100
AcDbLine
 10
75.74483053484755
 20
522.4083193697197
 11
66.74971313685182
 21
526.7772852652465
  0
MTEXT
  5
C9
100
AcDbEntity
  8
drawing
  6
CONTINUOUS
 62
    0
370
   -2
100
AcDbMText
 10
72.06645294126095
 20
526.2793868296073
 30
0
 40
2.5
 41
2.5
 71
    5
 72
    1
  1
10
  7
standard
210
0
220
0
230
1
 50
334.093961647696
 73
    2
 44
1
  0
ENDBLK
  5
73
330
71
100
AcDbEntity
  8
0
100
AcDbBlockEnd
  0
BLOCK
  5
75
330
74
100
AcDbEntity
  8
0
100
AcDbBlockBegin
  2
*D16
 70
    1
 10
0
 20
0
  3
*D16
  1

  0
LINE
  5
CA
100
AcDbEntity
  8
drawing
  6
ByBlock
 62
    0
370
   -2
100
AcDbLine
 10
279.9179732558651
 20
179.2123040187052
 11
279.9179732558651
 21
39.2123040187052
  0
SOLID
  5
CB
100
AcDbEntity
  8
drawing
  6
ByBlock
 62
    0
370
   -2
100
AcDbTrace
 10
279.9179732558651
 20
179.2123040187052
 30
0
 11
280.3342579136379
 21
176.7123040187052
 31
0
 12
279.5016885980922
 22
176.7123040187052
 32
0
 13
279.5016885980922
 23
176.7123040187052
 33
0
  0
SOLID
  5
CC
100
AcDbEntity
  8
drawing
  6
ByBlock
 62
    0
370
   -2
100
AcDbTrace
 10
279.9179732558651
 20
39.2123040187052
 30
0
 11
279.5016885980922
 21
41.7123040187052
 31
0
 12
280.3342579136379
 22
41.7123040187052
 32
0
 13
280.3342579136379
 23
41.7123040187052
 33
0
  0
MTEXT
  5
CD
100
AcDbEntity
  8
drawing
  6
CONTINUOUS
 62
    0
370
   -2
100
AcDbMText
 10
278.0429732558651
 20
109.2123040187052
 30
0
 40
2.5
 41
4.722222222222222
 71
    5
 72
    1
  1
140
  7
standard
210
0
220
0
230
1
 50
90
 73
    2
 44
1
  0
LINE
  5
CE
100
AcDbEntity
  8
drawing
  6
ByBlock
 62
    0
370
   -2
100
AcDbLine
 10
299.5121110992878
 20
179.2123040187052
 11
278.6679732558651
 21
179.2123040187052
  0
LINE
  5
CF
100
AcDbEntity
  8
drawing
  6
ByBlock
 62
    0
370
   -2
100
AcDbLine
 10
299.5121110992878
 20
39.2123040187052
 11
278.6679732558651
 21
39.2123040187052
  0
ENDBLK
  5
76
330
74
100
AcDbEntity
  8
0
100
AcDbBlockEnd
  0
BLOCK
  5
78
330
77
100
AcDbEntity
  8
0
100
AcDbBlockBegin
  2
*D19
 70
    1
 10
0
 20
0
  3
*D19
  1

  0
LINE
  5
D0
100
AcDbEntity
  8
drawing
  6
ByBlock
 62
    0
370
   -2
100
AcDbLine
 10
300.1371110992878
 20
195.6939575457517
 11
560.1371110992878
 21
195.6939575457517
  0
SOLID
  5
D1
100
AcDbEntity
  8
drawing
  6
ByBlock
 62
    0
370
   -2
100
AcDbTrace
 10
300.1371110992878
 20
195.6939575457517
 30
0
 11
302.6371110992878
 21
196.1102422035246
 31
0
 12
302.6371110992878
 22
195.2776728879789
 32
0
 13
302.6371110992878
 23
195.2776728879789
 33
0
  0
SOLID
  5
D2
100
AcDbEntity
  8
drawing
  6
ByBlock
 62
    0
370
   -2
100
AcDbTrace
 10
560.1371110992878
 20
195.6939575457517
 30
0
 11
557.6371110992878
 21
195.2776728879789
 31
0
 12
557.6371110992878
 22
196.1102422035246
 32
0
 13
557.6371110992878
 23
196.1102422035246
 33
0
  0
MTEXT
  5
D3
100
AcDbEntity
  8
drawing
  6
CONTINUOUS
 62
    0
370
   -2
100
AcDbMText
 10
430.1371110992878
 20
197.5689575457517
 30
0
 40
2.5
 41
5.000000000000155
 71
    5
 72
    1
  1
260
  7
standard
210
0
220
0
230
1
 50
0
 73
    2
 44
1
  0
LINE
  5
D4
100
AcDbEntity
  8
drawing
  6
ByBlock
 62
    0
370
   -2
100
AcDbLine
 10
300.1371110992878
 20
179.8373040187052
 11
300.1371110992878
 21
196.9439575457517
  0
LINE
  5
D5
100
AcDbEntity
  8
drawing
  6
ByBlock
 62
    0
370
   -2
100
AcDbLine
 10
560.1371110992878
 20
179.8373040187052
 11
560.1371110992878
 21
196.9439575457517
  0
ENDBLK
  5
79
330
77
100
AcDbEntity
  8
0
100
AcDbBlockEnd
  0
BLOCK
  5
7B
330
7A
100
AcDbEntity
  8
0
100
AcDbBlockBegin
  2
*D6
 70
    1
 10
0
 20
0
  3
*D6
  1

  0
SOLID
  5
D6
100
AcDbEntity
  8
drawing
  6
ByBlock
 62
    0
370
   -2
100
AcDbTrace
 10
131.6875819366356
 20
377.0661004937928
 30
0
 11
134.2007766147414
 21
376.7387697341048
 31
0
 12
133.9591012689978
 22
375.9420485203494
 32
0
 13
133.9591012689978
 23
375.9420485203494
 33
0
  0
LINE
  5
D7
100
AcDbEntity
  8
drawing
  6
ByBlock
 62
    0
370
   -2
100
AcDbLine
 10
141.2570099575713
 20
374.16333502753
 11
131.6875819366356
 21
377.0661004937928
  0
MTEXT
  5
D8
100
AcDbEntity
  8
drawing
  6
CONTINUOUS
 62
    0
370
   -2
100
AcDbMText
 10
137.0165644720278
 20
377.4089855145869
 30
0
 40
2.5
 41
2.5
 71
    5
 72
    1
  1
10
  7
standard
210
0
220
0
230
1
 50
343.1254868120423
 73
    2
 44
1
  0
ENDBLK
  5
7C
330
7A
100
AcDbEntity
  8
0
100
AcDbBlockEnd
  0
BLOCK
  5
7E
330
7D
100
AcDbEntity
  8
0
100
AcDbBlockBegin
  2
*D8
 70
    1
 10
0
 20
0
  3
*D8
  1

  0
LINE
  5
D9
100
AcDbEntity
  8
drawing
  6
ByBlock
 62
    0
370
   -2
100
AcDbLine
 10
190.1142996342725
 20
359.2920000003645
 11
190.1142996342725
 21
384.2919954680268
  0
SOLID
  5
DA
100
AcDbEntity
  8
drawing
  6
ByBlock
 62
    0
370
   -2
100
AcDbTrace
 10
190.1142996342725
 20
359.2920000003645
 30
0
 11
189.6980149764996
 21
361.7920000003645
 31
0
 12
190.5305842920453
 22
361.7920000003645
 32
0
 13
190.5305842920453
 23
361.7920000003645
 33
0
  0
SOLID
  5
DB
100
AcDbEntity
  8
drawing
  6
ByBlock
 62
    0
370
   -2
100
AcDbTrace
 10
190.1142996342725
 20
384.2919954680268
 30
0
 11
190.5305842920453
 21
381.7919954680268
 31
0
 12
189.6980149764996
 22
381.7919954680268
 32
0
 13
189.6980149764996
 23
381.7919954680268
 33
0
  0
MTEXT
  5
DC
100
AcDbEntity
  8
drawing
  6
CONTINUOUS
 62
    0
370
   -2
100
AcDbMText
 10
188.2392996342725
 20
371.7919977341957
 30
0
 40
2.5
 41
3.055555555555711
 71
    5
 72
    1
  1
25
  7
standard
210
0
220
0
230
1
 50
90
 73
    2
 44
1
  0
LINE
  5
DD
100
AcDbEntity
  8
drawing
  6
ByBlock
 62
    0
370
   -2
100
AcDbLine
 10
194.9390000001984
 20
359.2920000003645
 11
188.8642996342725
 21
359.2920000003645
  0
LINE
  5
DE
100
AcDbEntity
  8
drawing
  6
ByBlock
 62
    0
370
   -2
100
AcDbLine
 10
194.9390000001994
 20
384.2919954680268
 11
188.8642996342725
 21
384.2919954680268
  0
ENDBLK
  5
7F
330
7D
100
AcDbEntity
  8
0
100
AcDbBlockEnd
  0
BLOCK
  5
81
330
80
100
AcDbEntity
  8
0
100
AcDbBlockBegin
  2
*D17
 70
    1
 10
0
 20
0
  3
*D17
  1

  0
LINE
  5
DF
100
AcDbEntity
  8
drawing
  6
ByBlock
 62
    0
370
   -2
100
AcDbLine
 10
362.6371110992878
 20
144.1276086627109
 11
497.6371110992878
 21
144.1276086627109
  0
SOLID
  5
E0
100
AcDbEntity
  8
drawing
  6
ByBlock
 62
    0
370
   -2
100
AcDbTrace
 10
362.6371110992878
 20
144.1276086627109
 30
0
 11
365.1371110992878
 21
144.5438933204837
 31
0
 12
365.1371110992878
 22
143.711324004938
 32
0
 13
365.1371110992878
 23
143.711324004938
 33
0
  0
SOLID
  5
E1
100
AcDbEntity
  8
drawing
  6
ByBlock
 62
    0
370
   -2
100
AcDbTrace
 10
497.6371110992878
 20
144.1276086627109
 30
0
 11
495.1371110992878
 21
143.711324004938
 31
0
 12
495.1371110992878
 22
144.5438933204837
 32
0
 13
495.1371110992878
 23
144.5438933204837
 33
0
  0
MTEXT
  5
E2
100
AcDbEntity
  8
drawing
  6
CONTINUOUS
 62
    0
370
   -2
100
AcDbMText
 10
430.1371110992878
 20
146.0026086627109
 30
0
 40
2.5
 41
4.444444444444756
 71
    5
 72
    1
  1
135
  7
standard
210
0
220
0
230
1
 50
0
 73
    2
 44
1
  0
LINE
  5
E3
100
AcDbEntity
  8
drawing
  6
ByBlock
 62
    0
370
   -2
100
AcDbLine
 10
362.6371110992878
 20
134.8373040187052
 11
362.6371110992878
 21
145.3776086627109
  0
LINE
  5
E4
100
AcDbEntity
  8
drawing
  6
ByBlock
 62
    0
370
   -2
100
AcDbLine
 10
497.6371110992878
 20
134.8373040187052
 11
497.6371110992878
 21
145.3776086627109
  0
ENDBLK
  5
82
330
80
100
AcDbEntity
  8
0
100
AcDbBlockEnd
  0
BLOCK
  5
84
330
83
100
AcDbEntity
  8
0
100
AcDbBlockBegin
  2
*D3
 70
    1
 10
0
 20
0
  3
*D3
  1

  0
LINE
  5
E5
100
AcDbEntity
  8
drawing
  6
ByBlock
 62
    0
370
   -2
100
AcDbLine
 10
83.69483053483624
 20
522.4083328123896
 11
67.79483053485886
 21
522.4083059270498
  0
SOLID
  5
E6
100
AcDbEntity
  8
drawing
  6
ByBlock
 62
    0
370
   -2
100
AcDbTrace
 10
78.69483053484339
 20
522.4083243578802
 30
0
 11
81.19482983094331
 21
522.8246132429072
 31
0
 12
81.19483123873633
 22
521.9920439273627
 32
0
 13
81.19483123873633
 23
521.9920439273627
 33
0
  0
SOLID
  5
E7
100
AcDbEntity
  8
drawing
  6
ByBlock
 62
    0
370
   -2
100
AcDbTrace
 10
72.79483053485171
 20
522.4083143815592
 30
0
 11
70.2948312387518
 21
521.9920254965323
 31
0
 12
70.29482983095878
 22
522.8245948120767
 32
0
 13
70.29482983095878
 23
522.8245948120767
 33
0
  0
MTEXT
  5
E8
100
AcDbEntity
  8
drawing
  6
CONTINUOUS
 62
    0
370
   -2
100
AcDbMText
 10
75.74482736440653
 20
524.283319369717
 30
0
 40
2.5
 41
4.027777777777933
 71
    5
 72
    1
  1
5,9
  7
standard
210
0
220
0
230
1
 50
9.688154103153822e-05
 73
    2
 44
1
  0
ENDBLK
  5
85
330
83
100
AcDbEntity
  8
0
100
AcDbBlockEnd
  0
BLOCK
  5
87
330
86
100
AcDbEntity
  8
0
100
AcDbBlockBegin
  2
*D10
 70
    1
 10
0
 20
0
  3
*D10
  1

  0
LINE
  5
E9
100
AcDbEntity
  8
drawing
  6
ByBlock
 62
    0
370
   -2
100
AcDbLine
 10
197.6140000001984
 20
384.2920000003645
 11
213.5140000001984
 21
384.2920000003645
  0
SOLID
  5
EA
100
AcDbEntity
  8
drawing
  6
ByBlock
 62
    0
370
   -2
100
AcDbTrace
 10
202.6140000001984
 20
384.2920000003645
 30
0
 11
200.1140000001984
 21
383.8757153425917
 31
0
 12
200.1140000001984
 22
384.7082846581374
 32
0
 13
200.1140000001984
 23
384.7082846581374
 33
0
  0
SOLID
  5
EB
100
AcDbEntity
  8
drawing
  6
ByBlock
 62
    0
370
   -2
100
AcDbTrace
 10
208.5140000001984
 20
384.2920000003645
 30
0
 11
211.0140000001984
 21
384.7082846581374
 31
0
 12
211.0140000001984
 22
383.8757153425917
 32
0
 13
211.0140000001984
 23
383.8757153425917
 33
0
  0
MTEXT
  5
EC
100
AcDbEntity
  8
drawing
  6
CONTINUOUS
 62
    0
370
   -2
100
AcDbMText
 10
205.5640000001984
 20
386.1670000003645
 30
0
 40
2.5
 41
4.027777777777933
 71
    5
 72
    1
  1
5,9
  7
standard
210
0
220
0
230
1
 50
0
 73
    2
 44
1
  0
ENDBLK
  5
88
330
86
100
AcDbEntity
  8
0
100
AcDbBlockEnd
  0
BLOCK
  5
8A
330
89
100
AcDbEntity
  8
0
100
AcDbBlockBegin
  2
A4_1_draw
 70
    0
 10
0
 20
0
  3
A4_1_draw
  1

  0
LINE
  5
ED
100
AcDbEntity
  8
0
  6
CONTINUOUS
 62
  256
370
   50
100
AcDbLine
 10
20
 20
292
 11
205
 21
292
  0
LINE
  5
EE
100
AcDbEntity
  8
0
  6
CONTINUOUS
 62
  256
370
   50
100
AcDbLine
 10
20
 20
292
 11
8
 21
292
  0
LINE
  5
EF
100
AcDbEntity
  8
0
  6
CONTINUOUS
 62
  256
370
   50
100
AcDbLine
 10
20
 20
172
 11
8
 21
172
  0
LINE
  5
F0
100
AcDbEntity
  8
0
  6
CONTINUOUS
 62
  256
370
   50
100
AcDbLine
 10
20
 20
232
 11
8
 21
232
  0
LINE
  5
F1
100
AcDbEntity
  8
0
  6
CONTINUOUS
 62
  256
370
   50
100
AcDbLine
 10
20
 20
150
 11
8
 21
150
  0
LINE
  5
F2
100
AcDbEntity
  8
0
  6
CONTINUOUS
 62
  256
370
   50
100
AcDbLine
 10
8
 20
5
 11
8
 21
150
  0
LINE
  5
F3
100
AcDbEntity
  8
0
  6
CONTINUOUS
 62
  256
370
   50
100
AcDbLine
 10
20
 20
115
 11
8
 21
115
  0
LINE
  5
F4
100
AcDbEntity
  8
0
  6
CONTINUOUS
 62
  256
370
   50
100
AcDbLine
 10
20
 20
90
 11
8
 21
90
  0
LINE
  5
F5
100
AcDbEntity
  8
0
  6
CONTINUOUS
 62
  256
370
   50
100
AcDbLine
 10
20
 20
65
 11
8
 21
65
  0
LINE
  5
F6
100
AcDbEntity
  8
0
  6
CONTINUOUS
 62
  256
370
   50
100
AcDbLine
 10
20
 20
29.99999999999999
 11
8
 21
29.99999999999999
  0
LINE
  5
F7
100
AcDbEntity
  8
0
  6
CONTINUOUS
 62
  256
370
   50
100
AcDbLine
 10
20
 20
5
 11
8
 21
5
  0
LINE
  5
F8
100
AcDbEntity
  8
0
  6
CONTINUOUS
 62
  256
370
   50
100
AcDbLine
 10
205
 20
5
 11
20
 21
5
  0
LINE
  5
F9
100
AcDbEntity
  8
0
  6
CONTINUOUS
 62
  256
370
   50
100
AcDbLine
 10
27
 20
34.99999999999999
 11
27
 21
59.99999999999999
  0
LINE
  5
FA
100
AcDbEntity
  8
0
  6
CONTINUOUS
 62
  256
370
   50
100
AcDbLine
 10
37
 20
5
 11
37
 21
59.99999999999999
  0
LINE
  5
FB
100
AcDbEntity
  8
0
  6
CONTINUOUS
 62
  256
370
   50
100
AcDbLine
 10
60
 20
5
 11
60
 21
59.99999999999999
  0
LINE
  5
FC
100
AcDbEntity
  8
0
  6
CONTINUOUS
 62
  256
370
   50
100
AcDbLine
 10
75
 20
5
 11
75
 21
59.99999999999999
  0
LINE
  5
FD
100
AcDbEntity
  8
0
  6
CONTINUOUS
 62
  256
370
   50
100
AcDbLine
 10
85
 20
5
 11
85
 21
59.99999999999999
  0
LINE
  5
FE
100
AcDbEntity
  8
0
  6
CONTINUOUS
 62
  256
370
   18
100
AcDbLine
 10
85
 20
44.99999999999999
 11
20
 21
44.99999999999999
  0
LINE
  5
FF
100
AcDbEntity
  8
0
  6
CONTINUOUS
 62
  256
370
   18
100
AcDbLine
 10
85
 20
49.99999999999999
 11
20
 21
49.99999999999999
  0
LINE
  5
100
100
AcDbEntity
  8
0
  6
CONTINUOUS
 62
  256
370
   18
100
AcDbLine
 10
85
 20
54.99999999999999
 11
20
 21
54.99999999999999
  0
LINE
  5
101
100
AcDbEntity
  8
0
  6
CONTINUOUS
 62
  256
370
   50
100
AcDbLine
 10
85
 20
39.99999999999999
 11
20
 21
39.99999999999999
  0
LINE
  5
102
100
AcDbEntity
  8
0
  6
CONTINUOUS
 62
  256
370
   50
100
AcDbLine
 10
85
 20
34.99999999999999
 11
20
 21
34.99999999999999
  0
LINE
  5
103
100
AcDbEntity
  8
0
  6
CONTINUOUS
 62
  256
370
   18
100
AcDbLine
 10
85
 20
29.99999999999999
 11
20
 21
29.99999999999999
  0
LINE
  5
104
100
AcDbEntity
  8
0
  6
CONTINUOUS
 62
  256
370
   18
100
AcDbLine
 10
85
 20
25
 11
20
 21
25
  0
LINE
  5
105
100
AcDbEntity
  8
0
  6
CONTINUOUS
 62
  256
370
   18
100
AcDbLine
 10
85
 20
15
 11
20
 21
15
  0
LINE
  5
106
100
AcDbEntity
  8
0
  6
CONTINUOUS
 62
  256
370
   18
100
AcDbLine
 10
85
 20
10
 11
20
 21
10
  0
LINE
  5
107
100
AcDbEntity
  8
0
  6
CONTINUOUS
 62
  256
370
   18
100
AcDbLine
 10
13
 20
5
 11
13
 21
150
  0
MTEXT
  5
108
100
AcDbEntity
  8
0
  6
CONTINUOUS
 62
  256
370
   18
100
AcDbMText
 10
75.49884349161327
 20
38.80052892259794
 30
0
 40
2.6
 41
4.911111111111111
 71
    1
 72
    5
  1
Дата
  7
unicode2
210
0
220
0
230
1
 50
0
 73
    1
 44
0.96
  0
LINE
  5
109
100
AcDbEntity
  8
0
  6
CONTINUOUS
 62
  256
370
   50
100
AcDbLine
 10
205
 20
44.99999999999999
 11
85
 21
44.99999999999999
  0
LINE
  5
10A
100
AcDbEntity
  8
0
  6
CONTINUOUS
 62
  256
370
   50
100
AcDbLine
 10
205
 20
20
 11
85
 21
20
  0
LINE
  5
10B
100
AcDbEntity
  8
0
  6
CONTINUOUS
 62
  256
370
   50
100
AcDbLine
 10
155
 20
5
 11
155
 21
44.99999999999999
  0
LINE
  5
10C
100
AcDbEntity
  8
0
  6
CONTINUOUS
 62
  256
370
   50
100
AcDbLine
 10
205
 20
39.99999999999999
 11
155
 21
39.99999999999999
  0
LINE
  5
10D
100
AcDbEntity
  8
0
  6
CONTINUOUS
 62
  256
370
   50
100
AcDbLine
 10
205
 20
25
 11
155
 21
25
  0
LINE
  5
10E
100
AcDbEntity
  8
0
  6
CONTINUOUS
 62
  256
370
   50
100
AcDbLine
 10
205
 20
292
 11
205
 21
5
  0
LINE
  5
10F
100
AcDbEntity
  8
0
  6
CONTINUOUS
 62
  256
370
   50
100
AcDbLine
 10
175
 20
20
 11
175
 21
25
  0
LINE
  5
110
100
AcDbEntity
  8
0
  6
CONTINUOUS
 62
  256
370
   50
100
AcDbLine
 10
170
 20
25
 11
170
 21
44.99999999999999
  0
LINE
  5
111
100
AcDbEntity
  8
0
  6
CONTINUOUS
 62
  256
370
   50
100
AcDbLine
 10
187
 20
25
 11
187
 21
44.99999999999999
  0
LINE
  5
112
100
AcDbEntity
  8
0
  6
CONTINUOUS
 62
  256
370
   18
100
AcDbLine
 10
160
 20
25
 11
160
 21
39.99999999999999
  0
LINE
  5
113
100
AcDbEntity
  8
0
  6
CONTINUOUS
 62
  256
370
   18
100
AcDbLine
 10
165
 20
25
 11
165
 21
39.99999999999999
  0
LINE
  5
114
100
AcDbEntity
  8
0
  6
CONTINUOUS
 62
  256
370
   18
100
AcDbLine
 10
0
 20
297
 11
210
 21
297
  0
LINE
  5
115
100
AcDbEntity
  8
0
  6
CONTINUOUS
 62
  256
370
   18
100
AcDbLine
 10
210
 20
297
 11
210
 21
0
  0
LINE
  5
116
100
AcDbEntity
  8
0
  6
CONTINUOUS
 62
  256
370
   18
100
AcDbLine
 10
210
 20
0
 11
0
 21
0
  0
LINE
  5
117
100
AcDbEntity
  8
0
  6
CONTINUOUS
 62
  256
370
   18
100
AcDbLine
 10
13
 20
172
 11
13
 21
292
  0
LINE
  5
118
100
AcDbEntity
  8
0
  6
CONTINUOUS
 62
  256
370
   50
100
AcDbLine
 10
20
 20
5
 11
20
 21
292
  0
LINE
  5
119
100
AcDbEntity
  8
0
  6
CONTINUOUS
 62
  256
370
   50
100
AcDbLine
 10
8
 20
172
 11
8
 21
292
  0
LINE
  5
11A
100
AcDbEntity
  8
0
  6
CONTINUOUS
 62
  256
370
   18
100
AcDbLine
 10
0
 20
0
 11
0
 21
297
  0
LINE
  5
11B
100
AcDbEntity
  8
0
  6
CONTINUOUS
 62
  256
370
   50
100
AcDbLine
 10
20
 20
278
 11
90
 21
278
  0
LINE
  5
11C
100
AcDbEntity
  8
0
  6
CONTINUOUS
 62
  256
370
   50
100
AcDbLine
 10
90
 20
278
 11
90
 21
292
  0
LINE
  5
11D
100
AcDbEntity
  8
0
  6
CONTINUOUS
 62
  256
370
   50
100
AcDbLine
 10
205
 20
59.99999999999999
 11
20
 21
59.99999999999999
  0
LINE
  5
11E
100
AcDbEntity
  8
0
  6
CONTINUOUS
 62
  256
370
   18
100
AcDbLine
 10
85
 20
20
 11
20
 21
20
  0
MTEXT
  5
11F
100
AcDbEntity
  8
0
  6
CONTINUOUS
 62
  256
370
   18
100
AcDbMText
 10
172.8769257759494
 20
41.29534233431075
 30
0
 40
2.8
 41
6.844444444444444
 71
    7
 72
    5
  1
Масса
  7
unicode2
210
0
220
0
230
1
 50
0
 73
    1
 44
0.96
  0
MTEXT
  5
120
100
AcDbEntity
  8
0
  6
CONTINUOUS
 62
  256
370
   18
100
AcDbMText
 10
187.5849740246256
 20
41.23627386744861
 30
0
 40
2.8
 41
9.955555555555556
 71
    7
 72
    5
  1
Масштаб
  7
unicode2
210
0
220
0
230
1
 50
0
 73
    1
 44
0.96
  0
MTEXT
  5
121
100
AcDbEntity
  8
0
  6
CONTINUOUS
 62
  256
370
   18
100
AcDbMText
 10
193.1695912587587
 20
35.27651370351804
 30
0
 40
4
 41
4.444444444444445
 71
    1
 72
    5
  1
1:1
  7
unicode2
210
0
220
0
230
1
 50
0
 73
    1
 44
0.96
  0
MTEXT
  5
122
100
AcDbEntity
  8
0
  6
CONTINUOUS
 62
  256
370
   18
100
AcDbMText
 10
175.6262566006992
 20
34.92210290234512
 30
0
 40
4
 41
4.888888888888888
 71
    1
 72
    5
  1
_
  7
unicode2
210
0
220
0
230
1
 50
0
 73
    1
 44
0.96
  0
MTEXT
  5
123
100
AcDbEntity
  8
0
  6
CONTINUOUS
 62
  256
370
   18
100
AcDbMText
 10
156.3699364036372
 20
34.98117136920728
 30
0
 40
4
 41
4.888888888888888
 71
    1
 72
    5
  1
_
  7
unicode2
210
0
220
0
230
1
 50
0
 73
    1
 44
0.96
  0
MTEXT
  5
124
100
AcDbEntity
  8
0
  6
CONTINUOUS
 62
  256
370
   18
100
AcDbMText
 10
156.6765291570974
 20
21.33342645140441
 30
0
 40
2.8
 41
5.28888888888889
 71
    7
 72
    5
  1
Лист
  7
unicode2
210
0
220
0
230
1
 50
0
 73
    1
 44
0.96
  0
MTEXT
  5
125
100
AcDbEntity
  8
0
  6
CONTINUOUS
 62
  256
370
   18
100
AcDbMText
 10
176.6228083413817
 20
21.48283678237283
 30
0
 40
2.8
 41
8.4
 71
    7
 72
    5
  1
Листов
  7
unicode2
210
0
220
0
230
1
 50
0
 73
    1
 44
0.96
  0
MTEXT
  5
126
100
AcDbEntity
  8
0
  6
CONTINUOUS
 62
  256
370
   18
100
AcDbMText
 10
157.3097755823095
 20
12.84273738270351
 30
0
 40
5
 41
6.111111111111112
 71
    1
 72
    5
  1
_
  7
unicode2
210
0
220
0
230
1
 50
0
 73
    1
 44
0.96
  0
LINE
  5
127
100
AcDbEntity
  8
0
  6
CONTINUOUS
 62
  256
370
   18
100
AcDbLine
 10
99.4141
 20
12.3223
 11
149.414
 21
12.3223
  0
MTEXT
  5
128
100
AcDbEntity
  8
0
  6
CONTINUOUS
 62
  256
370
   18
100
AcDbMText
 10
86.15118939899502
 20
9.759226030392952
 30
0
 40
3.5
 41
4.277777777777778
 71
    7
 72
    5
  1
_
  7
unicode2
210
0
220
0
230
1
 50
0
 73
    2
 44
0.96
  0
MTEXT
  5
129
100
AcDbEntity
  8
0
  6
CONTINUOUS
 62
  256
370
   18
100
AcDbMText
 10
99.72664420203979
 20
13.83186247130638
 30
0
 40
3.5
 41
4.277777777777778
 71
    7
 72
    5
  1
_
  7
unicode2
210
0
220
0
230
1
 50
0
 73
    2
 44
0.96
  0
MTEXT
  5
12A
100
AcDbEntity
  8
0
  6
CONTINUOUS
 62
  256
370
   18
100
AcDbMText
 10
99.72664420203979
 20
5.791016164887552
 30
0
 40
3.5
 41
4.277777777777778
 71
    7
 72
    5
  1
_
  7
unicode2
210
0
220
0
230
1
 50
0
 73
    2
 44
0.96
  0
MTEXT
  5
12B
100
AcDbEntity
  8
0
  6
CONTINUOUS
 62
  256
370
   18
100
AcDbMText
 10
95.20441960827618
 20
25.64126164718744
 30
0
 40
5
 41
6.111111111111112
 71
    7
 72
    5
  1
_
  7
unicode2
210
0
220
0
230
1
 50
0
 73
    2
 44
0.96
  0
MTEXT
  5
12C
100
AcDbEntity
  8
0
  6
CONTINUOUS
 62
  256
370
   18
100
AcDbMText
 10
103.1080332830454
 20
46.67360706943277
 30
0
 40
7
 41
8.555555555555555
 71
    7
 72
    5
  1
_
  7
unicode2
210
0
220
0
230
1
 50
0
 73
    2
 44
0.96
  0
MTEXT
  5
12D
100
AcDbEntity
  8
0
  6
CONTINUOUS
 62
  256
370
   18
100
AcDbMText
 10
103
 20
1.5
 30
0
 40
2.8
 41
13.06666666666667
 71
    7
 72
    5
  1
Копировал
  7
unicode2
210
0
220
0
230
1
 50
0
 73
    1
 44
0.96
  0
MTEXT
  5
12E
100
AcDbEntity
  8
0
  6
CONTINUOUS
 62
  256
370
   18
100
AcDbMText
 10
86.29236318127275
 20
288.8373065316765
 30
0
 40
5
 41
6.111111111111112
 71
    7
 72
    5
  1
_
  7
unicode2
210
0
220
0
230
1
 50
180
 73
    2
 44
0.96
  0
MTEXT
  5
12F
100
AcDbEntity
  8
0
  6
CONTINUOUS
 62
  256
370
   18
100
AcDbMText
 10
12.72287361981867
 20
249.9483341540375
 30
0
 40
2.8
 41
25.43333333333333
 71
    7
 72
    5
  1
Перв. примен.
  7
unicode
210
0
220
0
230
1
 50
90
 73
    1
 44
0.96
  0
MTEXT
  5
130
100
AcDbEntity
  8
0
  6
CONTINUOUS
 62
  256
370
   18
100
AcDbMText
 10
12.93333333333333
 20
196
 30
0
 40
2.8
 41
15.94444444444444
 71
    7
 72
    5
  1
Справ. N
  7
unicode
210
0
220
0
230
1
 50
90
 73
    1
 44
0.96
  0
MTEXT
  5
131
100
AcDbEntity
  8
0
  6
CONTINUOUS
 62
  256
370
   18
100
AcDbMText
 10
11.76222872060939
 20
119.8600584854846
 30
0
 40
2.8
 41
25.66666666666667
 71
    7
 72
    5
  1
Подп. и дата
  7
unicode
210
0
220
0
230
1
 50
90
 73
    1
 44
0.96
  0
MTEXT
  5
132
100
AcDbEntity
  8
0
  6
CONTINUOUS
 62
  256
370
   18
100
AcDbMText
 10
12.93333333333333
 20
90.92503899490796
 30
0
 40
2.8
 41
23.17777777777778
 71
    7
 72
    5
  1
Инв. N дубл.
  7
unicode
210
0
220
0
230
1
 50
90
 73
    1
 44
0.96
  0
MTEXT
  5
133
100
AcDbEntity
  8
0
  6
CONTINUOUS
 62
  256
370
   18
100
AcDbMText
 10
12
 20
34.52428688148023
 30
0
 40
2.8
 41
25.66666666666667
 71
    7
 72
    5
  1
Подп. и дата
  7
unicode
210
0
220
0
230
1
 50
90
 73
    1
 44
0.96
  0
MTEXT
  5
134
100
AcDbEntity
  8
0
  6
CONTINUOUS
 62
  256
370
   18
100
AcDbMText
 10
12
 20
5.878448676648993
 30
0
 40
2.8
 41
23.17777777777778
 71
    7
 72
    5
  1
Инв. N подл.
  7
unicode
210
0
220
0
230
1
 50
90
 73
    1
 44
0.96
  0
MTEXT
  5
135
100
AcDbEntity
  8
0
  6
CONTINUOUS
 62
  256
370
   18
100
AcDbMText
 10
20.35885253493967
 20
38.36312496677152
 30
0
 40
2.6
 41
6.644444444444445
 71
    1
 72
    5
  1
Изм.
  7
unicode
210
0
220
0
230
1
 50
0
 73
    1
 44
0.96
  0
MTEXT
  5
136
100
AcDbEntity
  8
0
  6
CONTINUOUS
 62
  256
370
   18
100
AcDbMText
 10
27.65262996674527
 20
38.38572323075656
 30
0
 40
2.6
 41
8.666666666666668
 71
    1
 72
    5
  1
Лист.
  7
unicode
210
0
220
0
230
1
 50
0
 73
    1
 44
0.96
  0
MTEXT
  5
137
100
AcDbEntity
  8
0
  6
CONTINUOUS
 62
  256
370
   18
100
AcDbMText
 10
40.71117561837167
 20
38.5705278126922
 30
0
 40
2.6
 41
14.66111111111111
 71
    1
 72
    5
  1
N докум.
  7
unicode
210
0
220
0
230
1
 50
0
 73
    1
 44
0.96
  0
MTEXT
  5
138
100
AcDbEntity
  8
0
  6
CONTINUOUS
 62
  256
370
   18
100
AcDbMText
 10
63.30878466660961
 20
38.85802920007436
 30
0
 40
2.6
 41
8.377777777777778
 71
    1
 72
    5
  1
Подп.
  7
unicode
210
0
220
0
230
1
 50
0
 73
    1
 44
0.96
  0
MTEXT
  5
139
100
AcDbEntity
  8
0
  6
CONTINUOUS
 62
  256
370
   18
100
AcDbMText
 10
156.7512343225816
 20
40.42107746783959
 30
0
 40
2.8
 41
11.82222222222222
 71
    7
 72
    5
  1
Литер.
  7
unicode
210
0
220
0
230
1
 50
0
 73
    1
 44
0.96
  0
MTEXT
  5
13A
100
AcDbEntity
  8
0
  6
CONTINUOUS
 62
  256
370
   18
100
AcDbMText
 10
156.5908364978008
 20
21.0683574166215
 30
0
 40
2.8
 41
8.4
 71
    7
 72
    5
  1
Лист
  7
unicode
210
0
220
0
230
1
 50
0
 73
    2
 44
0.96
  0
MTEXT
  5
13B
100
AcDbEntity
  8
0
  6
CONTINUOUS
 62
  256
370
   18
100
AcDbMText
 10
176.6456249656526
 20
21.15303507179928
 30
0
 40
2.8
 41
12.75555555555556
 71
    7
 72
    5
  1
Листов
  7
unicode
210
0
220
0
230
1
 50
0
 73
    2
 44
0.96
  0
MTEXT
  5
13C
100
AcDbEntity
  8
0
  6
CONTINUOUS
 62
  256
370
   18
100
AcDbMText
 10
173.1363605994843
 20
41.35441080117291
 30
0
 40
2.8
 41
10.88888888888889
 71
    7
 72
    5
  1
Масса
  7
unicode
210
0
220
0
230
1
 50
0
 73
    1
 44
0.96
  0
MTEXT
  5
13D
100
AcDbEntity
  8
0
  6
CONTINUOUS
 62
  256
370
   18
100
AcDbMText
 10
187.6585784624756
 20
41.35441080117291
 30
0
 40
2.8
 41
16.8
 71
    7
 72
    5
  1
Масштаб
  7
unicode
210
0
220
0
230
1
 50
0
 73
    1
 44
0.96
  0
MTEXT
  5
13E
100
AcDbEntity
  8
0
  6
CONTINUOUS
 62
  256
370
   18
100
AcDbMText
 10
25.18202381522531
 20
76.07127741726973
 30
0
 40
4.5
 41
119.5
 71
    1
 72
    5
  1
2. Острые кромки скруглить R0,1...0,2.
  7
unicode
210
0
220
0
230
1
 50
0
 73
    2
 44
0.96
  0
MTEXT
  5
13F
100
AcDbEntity
  8
0
  6
CONTINUOUS
 62
  256
370
   18
100
AcDbMText
 10
98.56257039477205
 20
28.9944731316485
 30
0
 40
5
 41
6.111111111111112
 71
    7
 72
    5
  1
_
  7
unicode
210
0
220
0
230
1
 50
0
 73
    2
 44
0.96
  0
MTEXT
  5
140
100
AcDbEntity
  8
0
  6
CONTINUOUS
 62
  256
370
   18
100
AcDbMText
 10
106.646530602871
 20
45.71911692617419
 30
0
 40
7
 41
8.555555555555555
 71
    7
 72
    5
  1
_
  7
unicode
210
0
220
0
230
1
 50
0
 73
    2
 44
0.96
  0
MTEXT
  5
141
100
AcDbEntity
  8
0
  6
CONTINUOUS
 62
  256
370
   18
100
AcDbMText
 10
87.01199052938098
 20
290.4709157599352
 30
0
 40
5
 41
6.111111111111112
 71
    7
 72
    5
  1
_
  7
unicode
210
0
220
0
230
1
 50
180
 73
    1
 44
0.96
  0
MTEXT
  5
142
100
AcDbEntity
  8
0
  6
CONTINUOUS
 62
  256
370
   18
100
AcDbMText
 10
170.8297109353711
 20
20.13502408328817
 30
0
 40
2.8
 41
3.422222222222222
 71
    7
 72
    5
  1
_
  7
unicode
210
0
220
0
230
1
 50
0
 73
    2
 44
0.96
  0
MTEXT
  5
143
100
AcDbEntity
  8
0
  6
CONTINUOUS
 62
  256
370
   18
100
AcDbMText
 10
200.0335213965635
 20
20.13502408328817
 30
0
 40
2.8
 41
3.422222222222222
 71
    7
 72
    5
  1
_
  7
unicode
210
0
220
0
230
1
 50
0
 73
    2
 44
0.96
  0
MTEXT
  5
144
100
AcDbEntity
  8
0
  6
CONTINUOUS
 62
  256
370
   18
100
AcDbMText
 10
156.9538672908267
 20
31.55591365959112
 30
0
 40
2.8
 41
1.711111111111111
 71
    7
 72
    5
  1
а
  7
unicode
210
0
220
0
230
1
 50
0
 73
    2
 44
0.96
  0
MTEXT
  5
145
100
AcDbEntity
  8
0
  6
CONTINUOUS
 62
  256
370
   18
100
AcDbMText
 10
172.8062119196231
 20
30.70325383581908
 30
0
 40
2.8
 41
3.422222222222222
 71
    7
 72
    5
  1
_
  7
unicode
210
0
220
0
230
1
 50
0
 73
    2
 44
0.96
  0
MTEXT
  5
146
100
AcDbEntity
  8
0
  6
CONTINUOUS
 62
  256
370
   18
100
AcDbMText
 10
100.302745451015
 20
5.789649125274295
 30
0
 40
4
 41
4.888888888888888
 71
    7
 72
    5
  1
_
  7
unicode
210
0
220
0
230
1
 50
0
 73
    2
 44
0.96
  0
MTEXT
  5
147
100
AcDbEntity
  8
0
  6
CONTINUOUS
 62
  256
370
   18
100
AcDbMText
 10
100.3943336118699
 20
12.75034935024617
 30
0
 40
4
 41
4.888888888888888
 71
    7
 72
    5
  1
_
  7
unicode
210
0
220
0
230
1
 50
0
 73
    2
 44
0.96
  0
MTEXT
  5
148
100
AcDbEntity
  8
0
  6
CONTINUOUS
 62
  256
370
   18
100
AcDbMText
 10
86.10658051850659
 20
9.727940042034696
 30
0
 40
4
 41
4.888888888888888
 71
    7
 72
    5
  1
_
  7
unicode
210
0
220
0
230
1
 50
0
 73
    2
 44
0.96
  0
MTEXT
  5
149
100
AcDbEntity
  8
0
  6
CONTINUOUS
 62
  256
370
   18
100
AcDbMText
 10
173.331837790849
 20
284.7315700961915
 30
0
 40
5
 41
8.055555555555866
 71
    1
 72
    5
  1
3,2
  7
unicode2
210
0
220
0
230
1
 50
0
 73
    1
 44
0.96
  0
ARC
  5
14A
100
AcDbEntity
  8
0
  6
CONTINUOUS
 62
  256
370
   18
100
AcDbCircle
 10
189.0101229266128
 20
275.5888114597931
 40
5.325295702609938
100
AcDbArc
 50
149.9898623596818
 51
210.0101376403183
  0
LINE
  5
14B
100
AcDbEntity
  8
0
  6
CONTINUOUS
 62
  256
370
   18
100
AcDbLine
 10
178.8161092064216
 20
272.9437110035099
 11
182.8161092064216
 21
279.8719142337853
  0
LINE
  5
14C
100
AcDbEntity
  8
0
  6
CONTINUOUS
 62
  256
370
   18
100
AcDbLine
 10
187.8918598888602
 20
272.9437110035099
 11
191.8918598888602
 21
279.8719142337853
  0
LINE
  5
14D
100
AcDbEntity
  8
0
  6
CONTINUOUS
 62
  256
370
   18
100
AcDbLine
 10
187.8918598888602
 20
272.9437110035099
 11
185.3918598888602
 21
277.2738380224321
  0
LINE
  5
14E
100
AcDbEntity
  8
0
  6
CONTINUOUS
 62
  256
370
   18
100
AcDbLine
 10
178.8164821428572
 20
272.9433214285714
 11
176.3164821428572
 21
277.2743214285714
  0
ARC
  5
14F
100
AcDbEntity
  8
0
  6
CONTINUOUS
 62
  256
370
   18
100
AcDbCircle
 10
187.9098573581572
 20
275.5888114597931
 40
5.325295702609938
100
AcDbArc
 50
329.9898623596817
 51
30.01013764031813
  0
MTEXT
  5
150
100
AcDbEntity
  8
0
  6
CONTINUOUS
 62
  256
370
   18
100
AcDbMText
 10
75.55378236769941
 20
38.85802920007436
 30
0
 40
2.5
 41
8.888888888888889
 71
    1
 72
    5
  1
Дата
  7
unicode
210
0
220
0
230
1
 50
0
 73
    2
 44
0.96
  0
MTEXT
  5
151
100
AcDbEntity
  8
0
  6
CONTINUOUS
 62
  256
370
   18
100
AcDbMText
 10
160.3427948278548
 20
0.56666666666667
 30
0
 40
2.8
 41
44.72222222222222
 71
    7
 72
    5
  1
Формат А4 ГОСТ 2.301
  7
unicode
210
0
220
0
230
1
 50
0
 73
    1
 44
0.96
  0
MTEXT
  5
152
100
AcDbEntity
  8
0
  6
CONTINUOUS
 62
  256
370
   18
100
AcDbMText
 10
20.89301444352353
 20
30.2502215065694
 30
0
 40
2.8
 41
14.31111111111111
 71
    7
 72
    5
  1
Разраб.
  7
unicode
210
0
220
0
230
1
 50
0
 73
    1
 44
0.96
  0
MTEXT
  5
153
100
AcDbEntity
  8
0
  6
CONTINUOUS
 62
  256
370
   18
100
AcDbMText
 10
20.90096412015888
 20
25.06666666666667
 30
0
 40
2.8
 41
9.022222222222222
 71
    7
 72
    5
  1
Пров.
  7
unicode
210
0
220
0
230
1
 50
0
 73
    1
 44
0.96
  0
MTEXT
  5
154
100
AcDbEntity
  8
0
  6
CONTINUOUS
 62
  256
370
   18
100
AcDbMText
 10
20.90096412015888
 20
20.06666666666667
 30
0
 40
2.8
 41
15.24444444444445
 71
    7
 72
    5
  1
Т.контр.
  7
unicode
210
0
220
0
230
1
 50
0
 73
    1
 44
0.96
  0
MTEXT
  5
155
100
AcDbEntity
  8
0
  6
CONTINUOUS
 62
  256
370
   18
100
AcDbMText
 10
20.90096412015888
 20
10.06666666666667
 30
0
 40
2.8
 41
14.93333333333333
 71
    7
 72
    5
  1
Н.контр.
  7
unicode
210
0
220
0
230
1
 50
0
 73
    1
 44
0.96
  0
MTEXT
  5
156
100
AcDbEntity
  8
0
  6
CONTINUOUS
 62
  256
370
   18
100
AcDbMText
 10
20.90096412015888
 20
6
 30
0
 40
2.8
 41
7.466666666666667
 71
    7
 72
    5
  1
Утв.
  7
unicode
210
0
220
0
230
1
 50
0
 73
    1
 44
0.96
  0
MTEXT
  5
157
100
AcDbEntity
  8
0
  6
CONTINUOUS
 62
  256
370
   18
100
AcDbMText
 10
205.9495602275124
 20
5.071756980097071
 30
0
 40
1.2
 41
22.99999949119484
 71
    1
 72
    5
  1
KONSEXPERT & RIBBONSOFT
  7
unicode2
210
0
220
0
230
1
 50
90
 73
    1
 44
0.96
  0
MTEXT
  5
158
100
AcDbEntity
  8
0
  6
CONTINUOUS
 62
  256
370
   18
100
AcDbMText
 10
207.7609020061185
 20
7.124610995850624
 30
0
 40
1.2
 41
18.73333282452818
 71
    1
 72
    5
  1
OPEN SOURCE RELEASE
  7
unicode2
210
0
220
0
230
1
 50
90
 73
    1
 44
0.96
  0
MTEXT
  5
159
100
AcDbEntity
  8
0
  6
CONTINUOUS
 62
  256
370
   18
100
AcDbMText
 10
156.5908364978008
 20
10.23535822005496
 30
0
 40
2.8
 41
3.422222222222222
 71
    7
 72
    5
  1
_
  7
unicode
210
0
220
0
230
1
 50
0
 73
    2
 44
0.96
  0
MTEXT
  5
15A
100
AcDbEntity
  8
0
  6
CONTINUOUS
 62
  256
370
   18
100
AcDbMText
 10
25.20343693295121
 20
90.85854079154342
 30
0
 40
4.5
 41
157.75
 71
    1
 72
    5
  1
1. Неуказанные предельные отклонения размеров\P  отверстий - Н14, валов - h14, остальных %%P IT
  7
unicode
210
0
220
0
230
1
 50
0
 73
    1
 44
0.96
  0
MTEXT
  5
15B
100
AcDbEntity
  8
0
  6
CONTINUOUS
 62
  256
370
   18
100
AcDbMText
 10
185.6416246148324
 20
82.70985797469362
 30
0
 40
3
 41
3.333333333333333
 71
    7
 72
    5
  1
14
  7
unicode
210
0
220
0
230
1
 50
0
 73
    2
 44
0.96
  0
MTEXT
  5
15C
100
AcDbEntity
  8
0
  6
CONTINUOUS
 62
  256
370
   18
100
AcDbMText
 10
186.7442759452694
 20
78.40951778598955
 30
0
 40
3
 41
1.333333333333333
 71
    7
 72
    5
  1
2
  7
unicode
210
0
220
0
230
1
 50
0
 73
    2
 44
0.96
  0
LINE
  5
15D
100
AcDbEntity
  8
0
  6
CONTINUOUS
 62
    7
370
   18
100
AcDbLine
 10
185.1406466901515
 20
81.99937478832771
 11
189.6460500900816
 21
81.99937478832771
  0
MTEXT
  5
15E
100
AcDbEntity
  8
0
  6
CONTINUOUS
 62
  256
370
   18
100
AcDbMText
 10
9.227786636297765
 20
66.41398664492917
 30
0
 40
2.8
 41
21.85555555555556
 71
    1
 72
    5
  1
Взам. инв.N
  7
unicode
210
0
220
0
230
1
 50
90
 73
    2
 44
0.96
  0
ENDBLK
  5
8B
330
89
100
AcDbEntity
  8
0
100
AcDbBlockEnd
  0
BLOCK
  5
8D
330
8C
100
AcDbEntity
  8
0
100
AcDbBlockBegin
  2
A4_1_text
 70
    0
 10
0
 20
0
  3
A4_1_text
  1

  0
MTEXT
  5
15F
100
AcDbEntity
  8
0
  6
CONTINUOUS
 62
  256
370
   18
100
AcDbMText
 10
75.49884349161327
 20
33.80052892259794
 30
0
 40
2.6
 41
4.911111111111111
 71
    1
 72
    5
  1
Дата
  7
unicode2
210
0
220
0
230
1
 50
0
 73
    2
 44
0.96
  0
LINE
  5
160
100
AcDbEntity
  8
0
  6
CONTINUOUS
 62
  256
370
   50
100
AcDbLine
 10
20
 20
292
 11
205
 21
292
  0
LINE
  5
161
100
AcDbEntity
  8
0
  6
CONTINUOUS
 62
  256
370
   50
100
AcDbLine
 10
205
 20
292
 11
205
 21
5
  0
LINE
  5
162
100
AcDbEntity
  8
0
  6
CONTINUOUS
 62
  256
370
   50
100
AcDbLine
 10
205
 20
5
 11
20
 21
5
  0
LINE
  5
163
100
AcDbEntity
  8
0
  6
CONTINUOUS
 62
  256
370
   50
100
AcDbLine
 10
20
 20
5
 11
20
 21
292
  0
LINE
  5
164
100
AcDbEntity
  8
0
  6
CONTINUOUS
 62
  256
370
   50
100
AcDbLine
 10
20
 20
5
 11
8
 21
5
  0
LINE
  5
165
100
AcDbEntity
  8
0
  6
CONTINUOUS
 62
  256
370
   50
100
AcDbLine
 10
20
 20
150
 11
8
 21
150
  0
LINE
  5
166
100
AcDbEntity
  8
0
  6
CONTINUOUS
 62
  256
370
   50
100
AcDbLine
 10
20
 20
29.99999999999999
 11
8
 21
29.99999999999999
  0
LINE
  5
167
100
AcDbEntity
  8
0
  6
CONTINUOUS
 62
  256
370
   50
100
AcDbLine
 10
20
 20
65
 11
8
 21
65
  0
LINE
  5
168
100
AcDbEntity
  8
0
  6
CONTINUOUS
 62
  256
370
   50
100
AcDbLine
 10
20
 20
90
 11
8
 21
90
  0
LINE
  5
169
100
AcDbEntity
  8
0
  6
CONTINUOUS
 62
  256
370
   50
100
AcDbLine
 10
20
 20
115
 11
8
 21
115
  0
LINE
  5
16A
100
AcDbEntity
  8
0
  6
CONTINUOUS
 62
  256
370
   50
100
AcDbLine
 10
8
 20
5
 11
8
 21
150
  0
LINE
  5
16B
100
AcDbEntity
  8
0
  6
CONTINUOUS
 62
  256
370
   50
100
AcDbLine
 10
20
 20
232
 11
8
 21
232
  0
LINE
  5
16C
100
AcDbEntity
  8
0
  6
CONTINUOUS
 62
  256
370
   50
100
AcDbLine
 10
20
 20
172
 11
8
 21
172
  0
LINE
  5
16D
100
AcDbEntity
  8
0
  6
CONTINUOUS
 62
  256
370
   50
100
AcDbLine
 10
8
 20
172
 11
8
 21
292
  0
LINE
  5
16E
100
AcDbEntity
  8
0
  6
CONTINUOUS
 62
  256
370
   50
100
AcDbLine
 10
85
 20
34.99999999999999
 11
20
 21
34.99999999999999
  0
LINE
  5
16F
100
AcDbEntity
  8
0
  6
CONTINUOUS
 62
  256
370
   50
100
AcDbLine
 10
85
 20
29.99999999999999
 11
20
 21
29.99999999999999
  0
LINE
  5
170
100
AcDbEntity
  8
0
  6
CONTINUOUS
 62
  256
370
   50
100
AcDbLine
 10
205
 20
44.99999999999999
 11
20
 21
44.99999999999999
  0
LINE
  5
171
100
AcDbEntity
  8
0
  6
CONTINUOUS
 62
  256
370
   50
100
AcDbLine
 10
27
 20
29.99999999999999
 11
27
 21
44.99999999999999
  0
LINE
  5
172
100
AcDbEntity
  8
0
  6
CONTINUOUS
 62
  256
370
   50
100
AcDbLine
 10
37
 20
5
 11
37
 21
44.99999999999999
  0
LINE
  5
173
100
AcDbEntity
  8
0
  6
CONTINUOUS
 62
  256
370
   50
100
AcDbLine
 10
60
 20
5
 11
60
 21
44.99999999999999
  0
LINE
  5
174
100
AcDbEntity
  8
0
  6
CONTINUOUS
 62
  256
370
   50
100
AcDbLine
 10
75
 20
5
 11
75
 21
44.99999999999999
  0
LINE
  5
175
100
AcDbEntity
  8
0
  6
CONTINUOUS
 62
  256
370
   50
100
AcDbLine
 10
85
 20
5
 11
85
 21
44.99999999999999
  0
LINE
  5
176
100
AcDbEntity
  8
0
  6
CONTINUOUS
 62
  256
370
   50
100
AcDbLine
 10
205
 20
24.99999999999999
 11
155
 21
24.99999999999999
  0
LINE
  5
177
100
AcDbEntity
  8
0
  6
CONTINUOUS
 62
  256
370
   50
100
AcDbLine
 10
170
 20
19.99999999999999
 11
170
 21
29.99999999999999
  0
LINE
  5
178
100
AcDbEntity
  8
0
  6
CONTINUOUS
 62
  256
370
   50
100
AcDbLine
 10
205
 20
29.99999999999999
 11
85
 21
29.99999999999999
  0
LINE
  5
179
100
AcDbEntity
  8
0
  6
CONTINUOUS
 62
  256
370
   50
100
AcDbLine
 10
205
 20
19.99999999999999
 11
155
 21
19.99999999999999
  0
LINE
  5
17A
100
AcDbEntity
  8
0
  6
CONTINUOUS
 62
  256
370
   50
100
AcDbLine
 10
185
 20
19.99999999999999
 11
185
 21
29.99999999999999
  0
LINE
  5
17B
100
AcDbEntity
  8
0
  6
CONTINUOUS
 62
  256
370
   50
100
AcDbLine
 10
155
 20
5
 11
155
 21
29.99999999999999
  0
LINE
  5
17C
100
AcDbEntity
  8
0
  6
CONTINUOUS
 62
  256
370
   50
100
AcDbLine
 10
20
 20
292
 11
8
 21
292
  0
MTEXT
  5
17D
100
AcDbEntity
  8
0
  6
CONTINUOUS
 62
  256
370
   18
100
AcDbMText
 10
188.4450567804852
 20
26.23421061578212
 30
0
 40
2.8
 41
8.4
 71
    7
 72
    5
  1
Листов
  7
unicode2
210
0
220
0
230
1
 50
0
 73
    2
 44
0.96
  0
MTEXT
  5
17E
100
AcDbEntity
  8
0
  6
CONTINUOUS
 62
  256
370
   18
100
AcDbMText
 10
172.8621875129925
 20
26.20298728476865
 30
0
 40
2.8
 41
5.28888888888889
 71
    7
 72
    5
  1
Лист
  7
unicode2
210
0
220
0
230
1
 50
0
 73
    2
 44
0.96
  0
MTEXT
  5
17F
100
AcDbEntity
  8
0
  6
CONTINUOUS
 62
  256
370
   18
100
AcDbMText
 10
103
 20
1.5
 30
0
 40
2.8
 41
13.06666666666667
 71
    7
 72
    5
  1
Копировал
  7
unicode2
210
0
220
0
230
1
 50
0
 73
    2
 44
0.96
  0
LINE
  5
180
100
AcDbEntity
  8
0
  6
CONTINUOUS
 62
  256
370
   18
100
AcDbLine
 10
160
 20
19.99999999999999
 11
160
 21
24.99999999999999
  0
LINE
  5
181
100
AcDbEntity
  8
0
  6
CONTINUOUS
 62
  256
370
   18
100
AcDbLine
 10
165
 20
19.99999999999999
 11
165
 21
24.99999999999999
  0
LINE
  5
182
100
AcDbEntity
  8
0
  6
CONTINUOUS
 62
  256
370
   18
100
AcDbLine
 10
85
 20
19.99999999999999
 11
20
 21
19.99999999999999
  0
LINE
  5
183
100
AcDbEntity
  8
0
  6
CONTINUOUS
 62
  256
370
   18
100
AcDbLine
 10
85
 20
24.99999999999999
 11
20
 21
24.99999999999999
  0
LINE
  5
184
100
AcDbEntity
  8
0
  6
CONTINUOUS
 62
  256
370
   18
100
AcDbLine
 10
85
 20
14.99999999999999
 11
20
 21
14.99999999999999
  0
LINE
  5
185
100
AcDbEntity
  8
0
  6
CONTINUOUS
 62
  256
370
   18
100
AcDbLine
 10
85
 20
10
 11
20
 21
10
  0
LINE
  5
186
100
AcDbEntity
  8
0
  6
CONTINUOUS
 62
  256
370
   18
100
AcDbLine
 10
85
 20
39.99999999999999
 11
20
 21
39.99999999999999
  0
LINE
  5
187
100
AcDbEntity
  8
0
  6
CONTINUOUS
 62
  256
370
   18
100
AcDbLine
 10
13
 20
5
 11
13
 21
150
  0
LINE
  5
188
100
AcDbEntity
  8
0
  6
CONTINUOUS
 62
  256
370
   18
100
AcDbLine
 10
13
 20
172
 11
13
 21
292
  0
LINE
  5
189
100
AcDbEntity
  8
0
  6
CONTINUOUS
 62
  256
370
   18
100
AcDbLine
 10
0
 20
297
 11
210
 21
297
  0
LINE
  5
18A
100
AcDbEntity
  8
0
  6
CONTINUOUS
 62
  256
370
   18
100
AcDbLine
 10
210
 20
297
 11
210
 21
0
  0
LINE
  5
18B
100
AcDbEntity
  8
0
  6
CONTINUOUS
 62
  256
370
   18
100
AcDbLine
 10
210
 20
0
 11
0
 21
0
  0
LINE
  5
18C
100
AcDbEntity
  8
0
  6
CONTINUOUS
 62
  256
370
   18
100
AcDbLine
 10
0
 20
0
 11
0
 21
297
  0
MTEXT
  5
18D
100
AcDbEntity
  8
0
  6
CONTINUOUS
 62
  256
370
   18
100
AcDbMText
 10
103.1080332830454
 20
31.67360706943277
 30
0
 40
7
 41
8.555555555555555
 71
    7
 72
    5
  1
_
  7
unicode2
210
0
220
0
230
1
 50
0
 73
    1
 44
0.96
  0
MTEXT
  5
18E
100
AcDbEntity
  8
0
  6
CONTINUOUS
 62
  256
370
   18
100
AcDbMText
 10
95.20441960827618
 20
10.64126164718744
 30
0
 40
5
 41
6.111111111111112
 71
    7
 72
    5
  1
_
  7
unicode2
210
0
220
0
230
1
 50
0
 73
    1
 44
0.96
  0
MTEXT
  5
18F
100
AcDbEntity
  8
0
  6
CONTINUOUS
 62
  256
370
   18
100
AcDbMText
 10
157.3097755823095
 20
12.84273738270351
 30
0
 40
5
 41
6.111111111111112
 71
    1
 72
    5
  1
_
  7
unicode2
210
0
220
0
230
1
 50
0
 73
    2
 44
0.96
  0
MTEXT
  5
190
100
AcDbEntity
  8
0
  6
CONTINUOUS
 62
  256
370
   18
100
AcDbMText
 10
176.4633050940649
 20
25.04073679219434
 30
0
 40
4
 41
4.888888888888888
 71
    1
 72
    5
  1
_
  7
unicode2
210
0
220
0
230
1
 50
0
 73
    2
 44
0.96
  0
MTEXT
  5
191
100
AcDbEntity
  8
0
  6
CONTINUOUS
 62
  256
370
   18
100
AcDbMText
 10
194.605166162937
 20
25.04073679219434
 30
0
 40
4
 41
4.888888888888888
 71
    1
 72
    5
  1
_
  7
unicode2
210
0
220
0
230
1
 50
0
 73
    2
 44
0.96
  0
MTEXT
  5
192
100
AcDbEntity
  8
0
  6
CONTINUOUS
 62
  256
370
   18
100
AcDbMText
 10
156.6836371231418
 20
24.99874174342381
 30
0
 40
4
 41
4.888888888888888
 71
    1
 72
    5
  1
_
  7
unicode2
210
0
220
0
230
1
 50
0
 73
    2
 44
0.96
  0
MTEXT
  5
193
100
AcDbEntity
  8
0
  6
CONTINUOUS
 62
  256
370
   18
100
AcDbMText
 10
12.72287361981867
 20
249.9483341540375
 30
0
 40
2.8
 41
25.43333333333333
 71
    7
 72
    5
  1
Перв. примен.
  7
unicode
210
0
220
0
230
1
 50
90
 73
    2
 44
0.96
  0
MTEXT
  5
194
100
AcDbEntity
  8
0
  6
CONTINUOUS
 62
  256
370
   18
100
AcDbMText
 10
12.93333333333333
 20
196
 30
0
 40
2.8
 41
15.94444444444444
 71
    7
 72
    5
  1
Справ. N
  7
unicode
210
0
220
0
230
1
 50
90
 73
    2
 44
0.96
  0
MTEXT
  5
195
100
AcDbEntity
  8
0
  6
CONTINUOUS
 62
  256
370
   18
100
AcDbMText
 10
11.76222872060939
 20
119.8600584854846
 30
0
 40
2.8
 41
25.66666666666667
 71
    7
 72
    5
  1
Подп. и дата
  7
unicode
210
0
220
0
230
1
 50
90
 73
    2
 44
0.96
  0
MTEXT
  5
196
100
AcDbEntity
  8
0
  6
CONTINUOUS
 62
  256
370
   18
100
AcDbMText
 10
12.93333333333333
 20
90.92503899490796
 30
0
 40
2.8
 41
23.17777777777778
 71
    7
 72
    5
  1
Инв. N дубл.
  7
unicode
210
0
220
0
230
1
 50
90
 73
    2
 44
0.96
  0
MTEXT
  5
197
100
AcDbEntity
  8
0
  6
CONTINUOUS
 62
  256
370
   18
100
AcDbMText
 10
12
 20
34.52428688148023
 30
0
 40
2.8
 41
25.66666666666667
 71
    7
 72
    5
  1
Подп. и дата
  7
unicode
210
0
220
0
230
1
 50
90
 73
    2
 44
0.96
  0
MTEXT
  5
198
100
AcDbEntity
  8
0
  6
CONTINUOUS
 62
  256
370
   18
100
AcDbMText
 10
12
 20
5.878448676648993
 30
0
 40
2.8
 41
23.17777777777778
 71
    7
 72
    5
  1
Инв. N подл.
  7
unicode
210
0
220
0
230
1
 50
90
 73
    2
 44
0.96
  0
MTEXT
  5
199
100
AcDbEntity
  8
0
  6
CONTINUOUS
 62
  256
370
   18
100
AcDbMText
 10
20.35885253493967
 20
33.36312496677152
 30
0
 40
2.6
 41
6.644444444444445
 71
    1
 72
    5
  1
Изм.
  7
unicode
210
0
220
0
230
1
 50
0
 73
    2
 44
0.96
  0
MTEXT
  5
19A
100
AcDbEntity
  8
0
  6
CONTINUOUS
 62
  256
370
   18
100
AcDbMText
 10
27.65262996674527
 20
33.38572323075656
 30
0
 40
2.6
 41
8.666666666666668
 71
    1
 72
    5
  1
Лист.
  7
unicode
210
0
220
0
230
1
 50
0
 73
    2
 44
0.96
  0
MTEXT
  5
19B
100
AcDbEntity
  8
0
  6
CONTINUOUS
 62
  256
370
   18
100
AcDbMText
 10
40.71117561837167
 20
33.5705278126922
 30
0
 40
2.6
 41
14.66111111111111
 71
    1
 72
    5
  1
N докум.
  7
unicode
210
0
220
0
230
1
 50
0
 73
    2
 44
0.96
  0
MTEXT
  5
19C
100
AcDbEntity
  8
0
  6
CONTINUOUS
 62
  256
370
   18
100
AcDbMText
 10
63.30878466660961
 20
33.85802920007436
 30
0
 40
2.6
 41
8.377777777777778
 71
    1
 72
    5
  1
Подп.
  7
unicode
210
0
220
0
230
1
 50
0
 73
    2
 44
0.96
  0
MTEXT
  5
19D
100
AcDbEntity
  8
0
  6
CONTINUOUS
 62
  256
370
   18
100
AcDbMText
 10
168.5
 20
0.56666666666667
 30
0
 40
2.8
 41
21.54444444444445
 71
    7
 72
    5
  1
Формат А4
  7
unicode
210
0
220
0
230
1
 50
0
 73
    2
 44
0.96
  0
MTEXT
  5
19E
100
AcDbEntity
  8
0
  6
CONTINUOUS
 62
  256
370
   18
100
AcDbMText
 10
156.8706583944579
 20
25.28830601560256
 30
0
 40
2.8
 41
11.82222222222222
 71
    7
 72
    5
  1
Литер.
  7
unicode
210
0
220
0
230
1
 50
0
 73
    2
 44
0.96
  0
MTEXT
  5
19F
100
AcDbEntity
  8
0
  6
CONTINUOUS
 62
  256
370
   18
100
AcDbMText
 10
176.6597794487484
 20
20.05947312756565
 30
0
 40
2.8
 41
3.422222222222222
 71
    7
 72
    5
  1
_
  7
unicode
210
0
220
0
230
1
 50
0
 73
    2
 44
0.96
  0
MTEXT
  5
1A0
100
AcDbEntity
  8
0
  6
CONTINUOUS
 62
  256
370
   18
100
AcDbMText
 10
194.6112942359949
 20
20.05947312756565
 30
0
 40
2.8
 41
3.422222222222222
 71
    7
 72
    5
  1
_
  7
unicode
210
0
220
0
230
1
 50
0
 73
    2
 44
0.96
  0
MTEXT
  5
1A1
100
AcDbEntity
  8
0
  6
CONTINUOUS
 62
  256
370
   18
100
AcDbMText
 10
157.010559819952
 20
20.99280646089897
 30
0
 40
2.8
 41
1.711111111111111
 71
    7
 72
    5
  1
а
  7
unicode
210
0
220
0
230
1
 50
0
 73
    2
 44
0.96
  0
MTEXT
  5
1A2
100
AcDbEntity
  8
0
  6
CONTINUOUS
 62
  256
370
   18
100
AcDbMText
 10
172.5102356712257
 20
26.2216393489359
 30
0
 40
2.8
 41
9.333333333333334
 71
    7
 72
    5
  1
Лист.
  7
unicode
210
0
220
0
230
1
 50
0
 73
    2
 44
0.96
  0
MTEXT
  5
1A3
100
AcDbEntity
  8
0
  6
CONTINUOUS
 62
  256
370
   18
100
AcDbMText
 10
188.3311413801879
 20
26.2216393489359
 30
0
 40
2.8
 41
13.68888888888889
 71
    7
 72
    5
  1
Листов.
  7
unicode
210
0
220
0
230
1
 50
0
 73
    2
 44
0.96
  0
MTEXT
  5
1A4
100
AcDbEntity
  8
0
  6
CONTINUOUS
 62
  256
370
   18
100
AcDbMText
 10
75.55378236769941
 20
33.85802920007436
 30
0
 40
2.5
 41
8.888888888888889
 71
    1
 72
    5
  1
Дата
  7
unicode
210
0
220
0
230
1
 50
0
 73
    2
 44
0.96
  0
MTEXT
  5
1A5
100
AcDbEntity
  8
0
  6
CONTINUOUS
 62
  256
370
   18
100
AcDbMText
 10
98.56257039477205
 20
13.9944731316485
 30
0
 40
5
 41
6.111111111111112
 71
    7
 72
    5
  1
_
  7
unicode
210
0
220
0
230
1
 50
0
 73
    2
 44
0.96
  0
MTEXT
  5
1A6
100
AcDbEntity
  8
0
  6
CONTINUOUS
 62
  256
370
   18
100
AcDbMText
 10
106.646530602871
 20
30.71911692617419
 30
0
 40
7
 41
8.555555555555555
 71
    7
 72
    5
  1
_
  7
unicode
210
0
220
0
230
1
 50
0
 73
    2
 44
0.96
  0
LINE
  5
1A7
100
AcDbEntity
  8
0
  6
CONTINUOUS
 62
  256
370
   50
100
AcDbLine
 10
20
 20
278
 11
90
 21
278
  0
LINE
  5
1A8
100
AcDbEntity
  8
0
  6
CONTINUOUS
 62
  256
370
   50
100
AcDbLine
 10
90
 20
278
 11
90
 21
292
  0
MTEXT
  5
1A9
100
AcDbEntity
  8
0
  6
CONTINUOUS
 62
  256
370
   18
100
AcDbMText
 10
87.01199052938098
 20
290.4709157599352
 30
0
 40
5
 41
6.111111111111112
 71
    7
 72
    5
  1
_
  7
unicode
210
0
220
0
230
1
 50
180
 73
    1
 44
0.96
  0
MTEXT
  5
1AA
100
AcDbEntity
  8
0
  6
CONTINUOUS
 62
  256
370
   18
100
AcDbMText
 10
21.06791775800664
 20
25.2502215065694
 30
0
 40
2.8
 41
14.31111111111111
 71
    7
 72
    5
  1
Разраб.
  7
unicode
210
0
220
0
230
1
 50
0
 73
    2
 44
0.96
  0
MTEXT
  5
1AB
100
AcDbEntity
  8
0
  6
CONTINUOUS
 62
  256
370
   18
100
AcDbMText
 10
21.07586743464199
 20
20.06666666666667
 30
0
 40
2.8
 41
9.022222222222222
 71
    7
 72
    5
  1
Пров.
  7
unicode
210
0
220
0
230
1
 50
0
 73
    2
 44
0.96
  0
MTEXT
  5
1AC
100
AcDbEntity
  8
0
  6
CONTINUOUS
 62
  256
370
   18
100
AcDbMText
 10
21.07586743464199
 20
10.06666666666667
 30
0
 40
2.8
 41
14.93333333333333
 71
    7
 72
    5
  1
Н.контр.
  7
unicode
210
0
220
0
230
1
 50
0
 73
    2
 44
0.96
  0
MTEXT
  5
1AD
100
AcDbEntity
  8
0
  6
CONTINUOUS
 62
  256
370
   18
100
AcDbMText
 10
21.07586743464199
 20
6
 30
0
 40
2.8
 41
7.466666666666667
 71
    7
 72
    5
  1
Утв.
  7
unicode
210
0
220
0
230
1
 50
0
 73
    2
 44
0.96
  0
MTEXT
  5
1AE
100
AcDbEntity
  8
0
  6
CONTINUOUS
 62
  256
370
   18
100
AcDbMText
 10
205.9495602275124
 20
5.071756980097071
 30
0
 40
1.2
 41
22.99999949119484
 71
    1
 72
    5
  1
KONSEXPERT & RIBBONSOFT
  7
unicode2
210
0
220
0
230
1
 50
90
 73
    1
 44
0.96
  0
MTEXT
  5
1AF
100
AcDbEntity
  8
0
  6
CONTINUOUS
 62
  256
370
   18
100
AcDbMText
 10
207.7609020061185
 20
7.124610995850624
 30
0
 40
1.2
 41
18.73333282452818
 71
    1
 72
    5
  1
OPEN SOURCE RELEASE
  7
unicode2
210
0
220
0
230
1
 50
90
 73
    1
 44
0.96
  0
MTEXT
  5
1B0
100
AcDbEntity
  8
0
  6
CONTINUOUS
 62
  256
370
   18
100
AcDbMText
 10
156.8706583944579
 20
10.78895431242806
 30
0
 40
2.8
 41
3.422222222222222
 71
    7
 72
    5
  1
_
  7
unicode
210
0
220
0
230
1
 50
0
 73
    2
 44
0.96
  0
MTEXT
  5
1B1
100
AcDbEntity
  8
0
  6
CONTINUOUS
 62
  256
370
   18
100
AcDbMText
 10
9.227786636297765
 20
66.41398664492917
 30
0
 40
2.8
 41
21.85555555555556
 71
    1
 72
    5
  1
Взам. инв.N
  7
unicode
210
0
220
0
230
1
 50
90
 73
    2
 44
0.96
  0
ENDBLK
  5
8E
330
8C
100
AcDbEntity
  8
0
100
AcDbBlockEnd
  0
ENDSEC
  0
SECTION
  2
ENTITIES
  0
LINE
  5
1B2
100
AcDbEntity
  8
0
  6
ByLayer
 62
  256
370
   -1
100
AcDbLine
 10
0
 20
0
 11
210
 21
0
  0
LINE
  5
1B3
100
AcDbEntity
  8
0
  6
ByLayer
 62
  256
370
   -1
100
AcDbLine
 10
210
 20
0
 11
210
 21
297
  0
LINE
  5
1B4
100
AcDbEntity
  8
0
  6
ByLayer
 62
  256
370
   -1
100
AcDbLine
 10
210
 20
297
 11
0
 21
297
  0
LINE
  5
1B5
100
AcDbEntity
  8
0
  6
ByLayer
 62
  256
370
   -1
100
AcDbLine
 10
0
 20
297
 11
0
 21
0
  0
DIMENSION
  5
1B6
100
AcDbEntity
  8
drawing
  6
ByLayer
 62
  256
370
   -1
100
AcDbDimension
  2
*D1
 10
85.74483053484755
 20
536.6896521952435
 30
0
 11
75.74483053484755
 21
538.5646521952435
 31
0
 70
   32
 71
    5
 72
    0
  3
Standard
 53
0
210
0
220
0
230
1
100
AcDbAlignedDimension
 13
65.74483053484755
 23
521.4083193697197
 33
0
 14
85.74483053484755
 24
521.4083193697197
 34
0
100
AcDbRotatedDimension
  0
ARC
  5
1B7
100
AcDbEntity
  8
drawing
  6
ByLayer
 62
  256
370
   -1
100
AcDbCircle
 10
75.74483053484755
 20
522.4083193697197
 40
10
100
AcDbArc
 50
0
 51
90
  0
LINE
  5
1B8
100
AcDbEntity
  8
drawing
  6
ByLayer
 62
  256
370
   -1
100
AcDbLine
 10
75.74483053484755
 20
532.4083193697197
 11
75.74483053484755
 21
532.4083193697197
  0
ARC
  5
1B9
100
AcDbEntity
  8
drawing
  6
ByLayer
 62
  256
370
   -1
100
AcDbCircle
 10
75.74483053484755
 20
522.4083193697197
 40
10
100
AcDbArc
 50
90
 51
180
  0
LINE
  5
1BA
100
AcDbEntity
  8
drawing
  6
ByLayer
 62
  256
370
   -1
100
AcDbLine
 10
65.74483053484755
 20
522.4083024607007
 11
65.74483053484755
 21
322.4083024607008
  0
DIMENSION
  5
1BB
100
AcDbEntity
  8
drawing
  6
ByLayer
 62
  256
370
   -1
100
AcDbDimension
  2
*D2
 10
59.44887225592788
 20
522.4083024607007
 30
0
 11
57.57387225592787
 21
422.4083024607007
 31
0
 70
   32
 71
    5
 72
    0
  3
Standard
 53
0
210
0
220
0
230
1
100
AcDbAlignedDimension
 13
65.74483053484755
 23
322.4083024607008
 33
0
 14
65.74483053484755
 24
522.4083024607007
 34
0
 50
90
100
AcDbRotatedDimension
  0
LINE
  5
1BC
100
AcDbEntity
  8
drawing
  6
ByLayer
 62
  256
370
   -1
100
AcDbLine
 10
85.74483053484755
 20
522.4083193697197
 11
85.74483053484755
 21
322.4083193697197
  0
LINE
  5
1BD
100
AcDbEntity
  8
drawing
  6
ByLayer
 62
  256
370
   -1
100
AcDbLine
 10
85.74483053484755
 20
322.4083193697197
 11
65.74483053484755
 21
322.4083024607008
  0
TEXT
  5
1BE
100
AcDbEntity
  8
drawing
  6
ByLayer
 62
  256
370
   -1
100
AcDbText
 10
79.06760576520207
 20
410.6590042414856
 30
0
 40
8
  1
Lever
 50
90
 41
1
 51
0
  7
standard
 71
    0
210
0
220
0
230
1
100
AcDbText
  0
CIRCLE
  5
1BF
100
AcDbEntity
  8
drawing
  6
ByLayer
 62
  256
370
   -1
100
AcDbCircle
 10
75.74483053484755
 20
522.4083193697197
 40
2.95
  0
DIMENSION
  5
1C0
100
AcDbEntity
  8
drawing
  6
ByLayer
 62
  256
370
   -1
100
AcDbDimension
  2
*D3
 10
78.69483053484339
 20
522.4083243578802
 30
0
 11
75.74482736440653
 21
524.283319369717
 31
0
 70
   35
 71
    5
 72
    0
  3
Standard
 53
0
210
0
220
0
230
1
100
AcDbDiametricDimension
 15
72.79483053485171
 25
522.4083143815592
 35
0
 40
0
  0
DIMENSION
  5
1C1
100
AcDbEntity
  8
drawing
  6
ByLayer
 62
  256
370
   -1
100
AcDbDimension
  2
*D4
 10
75.74483053484755
 20
522.4083193697197
 30
0
 11
72.06645294126095
 21
526.2793868296073
 31
0
 70
   36
 71
    5
 72
    0
  3
Standard
 53
0
210
0
220
0
230
1
100
AcDbRadialDimension
 15
66.74971313685182
 25
526.7772852652465
 35
0
 40
0
  0
LINE
  5
1C2
100
AcDbEntity
  8
drawing
  6
ByLayer
 62
  256
370
   -1
100
AcDbLine
 10
126.2570099575713
 20
359.16333502753
 11
156.2570099575713
 21
359.16333502753
  0
LINE
  5
1C3
100
AcDbEntity
  8
drawing
  6
ByLayer
 62
  256
370
   -1
100
AcDbLine
 10
150.8264389355279
 20
377.0660973388198
 11
156.2570099575713
 21
359.16333502753
  0
LINE
  5
1C4
100
AcDbEntity
  8
drawing
  6
ByLayer
 62
  256
370
   -1
100
AcDbLine
 10
131.6875800225946
 20
377.0660941838469
 11
126.2570099575713
 21
359.16333502753
  0
ARC
  5
1C5
100
AcDbEntity
  8
drawing
  6
ByLayer
 62
  256
370
   -1
100
AcDbCircle
 10
141.2570099575713
 20
374.16333502753
 40
10
100
AcDbArc
 50
16.87447540793174
 51
163.1254868120422
  0
CIRCLE
  5
1C6
100
AcDbEntity
  8
drawing
  6
ByLayer
 62
  256
370
   -1
100
AcDbCircle
 10
141.2570099575713
 20
374.16333502753
 40
2.95
  0
DIMENSION
  5
1C7
100
AcDbEntity
  8
drawing
  6
ByLayer
 62
  256
370
   -1
100
AcDbDimension
  2
*D5
 10
156.2570099575713
 20
353.2498802672371
 30
0
 11
141.2570099575713
 21
355.1248802672371
 31
0
 70
   32
 71
    5
 72
    0
  3
Standard
 53
0
210
0
220
0
230
1
100
AcDbAlignedDimension
 13
126.2570099575713
 23
359.16333502753
 33
0
 14
156.2570099575713
 24
359.16333502753
 34
0
100
AcDbRotatedDimension
  0
DIMENSION
  5
1C8
100
AcDbEntity
  8
drawing
  6
ByLayer
 62
  256
370
   -1
100
AcDbDimension
  2
*D6
 10
141.2570099575713
 20
374.16333502753
 30
0
 11
137.0165644720278
 21
377.4089855145869
 31
0
 70
   36
 71
    5
 72
    0
  3
Standard
 53
0
210
0
220
0
230
1
100
AcDbRadialDimension
 15
131.6875819366356
 25
377.0661004937928
 35
0
 40
0
  0
DIMENSION
  5
1C9
100
AcDbEntity
  8
drawing
  6
ByLayer
 62
  256
370
   -1
100
AcDbDimension
  2
*D7
 10
138.3070099575714
 20
374.16333502753
 30
0
 11
141.2570099575714
 21
376.03833502753
 31
0
 70
   35
 71
    5
 72
    0
  3
Standard
 53
0
210
0
220
0
230
1
100
AcDbDiametricDimension
 15
144.2070099575713
 25
374.16333502753
 35
0
 40
0
  0
ARC
  5
1CA
100
AcDbEntity
  8
drawing
  6
ByLayer
 62
  256
370
   -1
100
AcDbCircle
 10
205.5640000001984
 20
384.2920000003645
 40
10
100
AcDbArc
 50
179.9999740316185
 51
180.0000259683821
  0
ARC
  5
1CB
100
AcDbEntity
  8
drawing
  6
ByLayer
 62
  256
370
   -1
100
AcDbCircle
 10
205.5640000001984
 20
384.2920000003645
 40
10
100
AcDbArc
 50
359.9999764648034
 51
179.9999740316185
  0
LINE
  5
1CC
100
AcDbEntity
  8
drawing
  6
ByLayer
 62
  256
370
   -1
100
AcDbLine
 10
195.5640000001984
 20
359.2920000003645
 11
215.5640000001984
 21
359.2920000003645
  0
LINE
  5
1CD
100
AcDbEntity
  8
drawing
  6
ByLayer
 62
  256
370
   -1
100
AcDbLine
 10
195.5640000001984
 20
384.2919954680268
 11
195.5640000001984
 21
359.2920000003645
  0
LINE
  5
1CE
100
AcDbEntity
  8
drawing
  6
ByLayer
 62
  256
370
   -1
100
AcDbLine
 10
215.5640000001984
 20
359.2920000003645
 11
215.5640000001984
 21
384.2919958926977
  0
CIRCLE
  5
1CF
100
AcDbEntity
  8
drawing
  6
ByLayer
 62
  256
370
   -1
100
AcDbCircle
 10
205.5640000001984
 20
384.2920000003645
 40
2.95
  0
DIMENSION
  5
1D0
100
AcDbEntity
  8
drawing
  6
ByLayer
 62
  256
370
   -1
100
AcDbDimension
  2
*D8
 10
190.1142996342725
 20
384.2919954680268
 30
0
 11
188.2392996342725
 21
371.7919977341957
 31
0
 70
   32
 71
    5
 72
    0
  3
Standard
 53
0
210
0
220
0
230
1
100
AcDbAlignedDimension
 13
195.5640000001984
 23
359.2920000003645
 33
0
 14
195.5640000001994
 24
384.2919954680268
 34
0
 50
90
100
AcDbRotatedDimension
  0
DIMENSION
  5
1D1
100
AcDbEntity
  8
drawing
  6
ByLayer
 62
  256
370
   -1
100
AcDbDimension
  2
*D9
 10
215.5640000001984
 20
352.9206414391547
 30
0
 11
205.5640000001984
 21
354.7956414391547
 31
0
 70
   32
 71
    5
 72
    0
  3
Standard
 53
0
210
0
220
0
230
1
100
AcDbAlignedDimension
 13
195.5640000001984
 23
359.2920000003645
 33
0
 14
215.5640000001984
 24
359.2920000003645
 34
0
100
AcDbRotatedDimension
  0
DIMENSION
  5
1D2
100
AcDbEntity
  8
drawing
  6
ByLayer
 62
  256
370
   -1
100
AcDbDimension
  2
*D10
 10
202.6140000001984
 20
384.2920000003645
 30
0
 11
205.5640000001984
 21
386.1670000003645
 31
0
 70
   35
 71
    5
 72
    0
  3
Standard
 53
0
210
0
220
0
230
1
100
AcDbDiametricDimension
 15
208.5140000001984
 25
384.2920000003645
 35
0
 40
0
  0
DIMENSION
  5
1D3
100
AcDbEntity
  8
drawing
  6
ByLayer
 62
  256
370
   -1
100
AcDbDimension
  2
*D11
 10
205.5640000001984
 20
384.2920000003645
 30
0
 11
203.0826888443224
 21
389.0205008143356
 31
0
 70
   36
 71
    5
 72
    0
  3
Standard
 53
0
210
0
220
0
230
1
100
AcDbRadialDimension
 15
198.1040566163253
 25
390.9515228593543
 35
0
 40
0
  0
TEXT
  5
1D4
100
AcDbEntity
  8
drawing
  6
ByLayer
 62
  256
370
   -1
100
AcDbText
 10
166.6964477027467
 20
408.6190185567329
 30
0
 40
8
  1
Servo Mounting
 50
0
 41
1
 51
0
  7
standard
 71
    0
210
0
220
0
230
1
100
AcDbText
  0
ARC
  5
1D5
100
AcDbEntity
  8
drawing
  6
ByLayer
 62
  256
370
   -1
100
AcDbCircle
 10
175.3085602201997
 20
37.74064386093659
 40
30
100
AcDbArc
 50
270
 51
0
  0
LINE
  5
1D6
100
AcDbEntity
  8
drawing
  6
ByLayer
 62
  256
370
   -1
100
AcDbLine
 10
35.30856022019964
 20
7.740643860936586
 11
175.3085602201997
 21
7.740643860936586
  0
ARC
  5
1D7
100
AcDbEntity
  8
drawing
  6
ByLayer
 62
  256
370
   -1
100
AcDbCircle
 10
35.30856022019964
 20
37.7406438609366
 40
30
100
AcDbArc
 50
180
 51
270
  0
LINE
  5
1D8
100
AcDbEntity
  8
drawing
  6
ByLayer
 62
  256
370
   -1
100
AcDbLine
 10
5.308560220199627
 20
177.7406438609366
 11
5.308560220199627
 21
37.74064386093661
  0
ARC
  5
1D9
100
AcDbEntity
  8
drawing
  6
ByLayer
 62
  256
370
   -1
100
AcDbCircle
 10
35.30856022019962
 20
177.7406438609366
 40
30
100
AcDbArc
 50
89.99999999999999
 51
180
  0
LINE
  5
1DA
100
AcDbEntity
  8
drawing
  6
ByLayer
 62
  256
370
   -1
100
AcDbLine
 10
175.3085602201997
 20
207.7406438609366
 11
35.30856022019964
 21
207.7406438609366
  0
LINE
  5
1DB
100
AcDbEntity
  8
drawing
  6
ByLayer
 62
  256
370
   -1
100
AcDbLine
 10
205.3085602201997
 20
37.74064386093659
 11
205.3085602201997
 21
177.7406438609366
  0
ARC
  5
1DC
100
AcDbEntity
  8
drawing
  6
ByLayer
 62
  256
370
   -1
100
AcDbCircle
 10
175.3085602201997
 20
177.7406438609366
 40
30
100
AcDbArc
 50
0
 51
90
  0
DIMENSION
  5
1DD
100
AcDbEntity
  8
drawing
  6
ByLayer
 62
  256
370
   -1
100
AcDbDimension
  2
*D12
 10
-16.8903242575183
 20
7.740643860936615
 30
0
 11
-18.76532425751829
 21
107.7406438609366
 31
0
 70
   32
 71
    5
 72
    0
  3
Standard
 53
0
210
0
220
0
230
1
100
AcDbAlignedDimension
 13
35.30856022019964
 23
207.7406438609366
 33
0
 14
35.30856022019962
 24
7.740643860936601
 34
0
 50
90
100
AcDbRotatedDimension
  0
DIMENSION
  5
1DE
100
AcDbEntity
  8
drawing
  6
ByLayer
 62
  256
370
   -1
100
AcDbDimension
  2
*D13
 10
175.3085602201997
 20
37.74064386093659
 30
0
 11
187.2409871527227
 21
28.45986735786315
 31
0
 70
   36
 71
    5
 72
    0
  3
Standard
 53
0
210
0
220
0
230
1
100
AcDbRadialDimension
 15
196.5217636557961
 25
16.52744042534016
 35
0
 40
0
  0
DIMENSION
  5
1DF
100
AcDbEntity
  8
drawing
  6
ByLayer
 62
  256
370
   -1
100
AcDbDimension
  2
*D14
 10
175.3085658158244
 20
223.2798144151728
 30
0
 11
105.308563018012
 21
225.1548144151728
 31
0
 70
   32
 71
    5
 72
    0
  3
Standard
 53
0
210
0
220
0
230
1
100
AcDbAlignedDimension
 13
35.30856022019964
 23
207.7406438609366
 33
0
 14
175.3085658158244
 24
207.7406438609366
 34
0
100
AcDbRotatedDimension
  0
CIRCLE
  5
1E0
100
AcDbEntity
  8
drawing
  6
ByLayer
 62
  256
370
   -1
100
AcDbCircle
 10
105.3085602201997
 20
107.7406438609366
 40
2.95
  0
DIMENSION
  5
1E1
100
AcDbEntity
  8
drawing
  6
ByLayer
 62
  256
370
   -1
100
AcDbDimension
  2
*D15
 10
102.3585602201997
 20
107.7406438609366
 30
0
 11
105.3085602201997
 21
109.6156438609366
 31
0
 70
   35
 71
    5
 72
    0
  3
Standard
 53
0
210
0
220
0
230
1
100
AcDbDiametricDimension
 15
108.2585602201997
 25
107.7406438609366
 35
0
 40
0
  0
TEXT
  5
1E2
100
AcDbEntity
  8
drawing
  6
ByLayer
 62
  256
370
   -1
100
AcDbText
 10
79.5283637156319
 20
170.6897019432973
 30
0
 40
8
  1
Head Side
 50
0
 41
1
 51
0
  7
standard
 71
    0
210
0
220
0
230
1
100
AcDbText
  0
LINE
  5
1E3
100
AcDbEntity
  8
drawing
  6
ByLayer
 62
  253
420
10526884
370
   -1
100
AcDbLine
 10
5.308560220199624
 20
107.7406438609366
 11
205.3085602201997
 21
107.7406438609366
  0
LINE
  5
1E4
100
AcDbEntity
  8
drawing
  6
ByLayer
 62
  253
420
10526884
370
   -1
100
AcDbLine
 10
105.3085602201997
 20
7.74064386093653
 11
105.3085602201997
 21
207.7406438609366
  0
LWPOLYLINE
  5
1E5
100
AcDbEntity
  8
drawing
  6
ByLayer
 62
    7
370
   -1
100
AcDbPolyline
 90
    4
 70
    1
 43
0
 10
300.1371110992878
 20
39.2123040187052
 10
560.1371110992878
 20
39.2123040187052
 10
560.1371110992878
 20
179.2123040187052
 10
300.1371110992878
 20
179.2123040187052
  0
DIMENSION
  5
1E6
100
AcDbEntity
  8
drawing
  6
ByLayer
 62
    7
370
   -1
100
AcDbDimension
  2
*D16
 10
279.9179732558651
 20
39.2123040187052
 30
0
 11
278.0429732558651
 21
109.2123040187052
 31
0
 70
   32
 71
    5
  3
Standard
 53
0
210
0
220
0
230
1
100
AcDbAlignedDimension
 13
300.1371110992878
 23
179.2123040187052
 33
0
 14
300.1371110992878
 24
39.2123040187052
 34
0
 50
90
100
AcDbRotatedDimension
  0
LWPOLYLINE
  5
1E7
100
AcDbEntity
  8
drawing
  6
ByLayer
 62
  256
370
   -1
100
AcDbPolyline
 90
    4
 70
    1
 43
0
 10
362.6371110992878
 20
54.2123040187052
 10
497.6371110992878
 20
54.2123040187052
 10
497.6371110992878
 20
134.2123040187052
 10
362.6371110992878
 20
134.2123040187052
  0
DIMENSION
  5
1E8
100
AcDbEntity
  8
drawing
  6
ByLayer
 62
  256
370
   -1
100
AcDbDimension
  2
*D17
 10
497.6371110992878
 20
144.1276086627109
 30
0
 11
430.1371110992878
 21
146.0026086627109
 31
0
 70
   32
 71
    5
 72
    0
  3
Standard
 53
0
210
0
220
0
230
1
100
AcDbAlignedDimension
 13
362.6371110992878
 23
134.2123040187052
 33
0
 14
497.6371110992878
 24
134.2123040187052
 34
0
100
AcDbRotatedDimension
  0
DIMENSION
  5
1E9
100
AcDbEntity
  8
drawing
  6
ByLayer
 62
  256
370
   -1
100
AcDbDimension
  2
*D18
 10
347.2553840608953
 20
54.2123040187052
 30
0
 11
345.3803840608953
 21
94.2123040187052
 31
0
 70
   32
 71
    5
 72
    0
  3
Standard
 53
0
210
0
220
0
230
1
100
AcDbAlignedDimension
 13
362.6371110992878
 23
134.2123040187052
 33
0
 14
362.6371110992878
 24
54.2123040187052
 34
0
 50
90
100
AcDbRotatedDimension
  0
LINE
  5
1EA
100
AcDbEntity
  8
drawing
  6
ByLayer
 62
  253
420
10526884
370
   -1
100
AcDbLine
 10
300.1371110992878
 20
109.2123040187052
 11
560.1371110992878
 21
109.2123040187052
  0
TEXT
  5
1EB
100
AcDbEntity
  8
drawing
  6
ByLayer
 62
  256
370
   -1
100
AcDbText
 10
399.1578961966421
 20
160.4415319462399
 30
0
 40
8
  1
Head Front
 50
0
 41
1
 51
0
  7
standard
 71
    0
210
0
220
0
230
1
100
AcDbText
  0
DIMENSION
  5
1EC
100
AcDbEntity
  8
drawing
  6
ByLayer
 62
  256
370
   -1
100
AcDbDimension
  2
*D19
 10
560.1371110992878
 20
195.6939575457517
 30
0
 11
430.1371110992878
 21
197.5689575457517
 31
0
 70
   32
 71
    5
  3
Standard
 53
0
210
0
220
0
230
1
100
AcDbAlignedDimension
 13
300.1371110992878
 23
179.2123040187052
 33
0
 14
560.1371110992878
 24
179.2123040187052
 34
0
100
AcDbRotatedDimension
  0
LINE
  5
1ED
100
AcDbEntity
  8
drawing
  6
ByLayer
 62
  253
420
10526884
370
   -1
100
AcDbLine
 10
430.1371110992878
 20
179.2123040187052
 11
430.1371110992878
 21
39.2123040187052
  0
ENDSEC
  0
SECTION
  2
OBJECTS
  0
DICTIONARY
  5
C
330
0
100
AcDbDictionary
281
    1
  3
ACAD_GROUP
350
D
  0
DICTIONARY
  5
D
330
C
100
AcDbDictionary
281
    1
  0
ENDSEC
  0
EOF
